<?xml version="1.0" encoding="utf-8"?>
<!-- Generator: Adobe Illustrator 24.1.2, SVG Export Plug-In . SVG Version: 6.00 Build 0)  -->
<svg version="1.1" id="Calque_1" xmlns="http://www.w3.org/2000/svg" xmlns:xlink="http://www.w3.org/1999/xlink" x="0px" y="0px"
	 viewBox="0 0 129 241" style="enable-background:new 0 0 129 241;" xml:space="preserve">
<style type="text/css">
	.Ombre_x0020_portée{fill:none;}
	.Néon_x0020_bleu_x0020_épais{fill:none;stroke:#0073BC;stroke-width:10;stroke-linecap:round;stroke-linejoin:round;}
	.Turquoise_x0020_lumineux{fill:url(#SVGID_1_);stroke:#FFFFFF;stroke-width:0.25;stroke-miterlimit:1;}
	.Ton_x0020_clair_x0020_noir{fill:url(#SVGID_2_);stroke:#FFFFFF;stroke-width:0.3629;stroke-miterlimit:1;}
	.Croquemitaine_GS{fill-rule:evenodd;clip-rule:evenodd;fill:#FFDD00;}
	.st0{fill:#EBEBEC;}
	.st1{fill:#818386;}
	.st2{fill:#D9D9DB;}
	.st3{opacity:0.8;fill:#D9D9DB;}
	.st4{opacity:0.7;fill:#EBEBEC;}
	.st5{fill:#B1B2B4;}
	.st6{fill:#D3D4D5;}
	.st7{opacity:0.5;fill:#D9D9DB;}
	.st8{fill:#C9CACC;}
	.st9{fill:#C7C8CA;}
	.st10{fill:#2A416F;}
	.st11{fill:#FFFFFF;}
	.st12{opacity:0.5;fill:#C9CACC;}
	.st13{fill:url(#SVGID_3_);}
	.st14{fill:url(#SVGID_4_);}
	.st15{fill:url(#SVGID_5_);}
	.st16{fill:url(#SVGID_6_);}
	.st17{fill:#C6C8D0;}
	.st18{fill:url(#SVGID_7_);}
	.st19{fill:#6B6C6F;}
	.st20{fill:#BEBFC1;}
	.st21{opacity:0.5;fill:#EBEBEC;}
</style>
<linearGradient id="SVGID_1_" gradientUnits="userSpaceOnUse" x1="-186" y1="-29" x2="-186" y2="-30">
	<stop  offset="0" style="stop-color:#1D59F4"/>
	<stop  offset="0.618" style="stop-color:#2D65EE"/>
	<stop  offset="0.6292" style="stop-color:#3864F3"/>
	<stop  offset="0.9831" style="stop-color:#00DDFC"/>
</linearGradient>
<linearGradient id="SVGID_2_" gradientUnits="userSpaceOnUse" x1="-186" y1="-29" x2="-186" y2="-30">
	<stop  offset="0" style="stop-color:#060606"/>
	<stop  offset="0.618" style="stop-color:#000000"/>
	<stop  offset="0.6292" style="stop-color:#000000"/>
	<stop  offset="0.9831" style="stop-color:#000000"/>
</linearGradient>
<g id="astronaut">
	<g>
		<g>
			<g>
				<path class="st0" d="M26.1,66.4c0,0-15.9,19.8-19.2,39.7c0,0-1.4,8.4,2.8,9.3c4.2,0.9,11.5,0.4,14.7-7.9
					c3.2-8.5,11.9-21.3,18.4-28.1L26.1,66.4z"/>
				<path class="st1" d="M17.7,100.6c-2.6-0.4-5,0.2-7.3,1.6c-1,0.6-2.3,1.6-3.3,2.7c-0.1,0.4-0.2,0.8-0.2,1.2c0,0-1.4,8.4,2.8,9.3
					c4.2,0.9,11.5,0.4,14.7-7.9c0.3-0.8,0.6-1.5,1-2.4C23.5,102.8,20.8,101,17.7,100.6z"/>
				<path class="st2" d="M20.2,89.5c1.1-2.3,2.5-4.5,4-6.6c-1.3-3.1-2.3-6.4-3-9.7C16.8,80,10.4,91,7.7,102.4
					c2.9-1.4,5.9-2.2,9.1-2.9C17.5,96.1,18.7,92.7,20.2,89.5z"/>
				<path class="st1" d="M31,95c0.2-0.4,0.5-0.7,0.7-1.1c-4.1-5.3-9.6-9.5-15.6-12.2c-0.4,0.7-0.8,1.4-1.2,2.2
					C21.1,85.9,26.9,90,31,95z"/>
				<path class="st3" d="M26.1,66.4c0,0-1.4,1.7-3.4,4.7c0.1,3.5,0.8,7,2.3,10.2c0.9,1.9,2.4,4.1,2.4,6.2c0,2-8.1,15.8-9,21.8
					c-0.3,1.8-0.4,3.7-0.6,5.5c2.6-1.1,5.1-3.3,6.6-7.2c3.2-8.5,11.9-21.3,18.4-28.1L26.1,66.4z"/>
				<path class="st2" d="M7.4,129.2c1.5-1.4,3.4-2.6,5.5-3c2.2-0.5,4.7-0.8,6.8,0.2c1,0.5,1.7,1.3,2.5,2.1c1.1-7,2-19.8,2-19.8
					s-1.9-7.4-9.4-5.9c0,0-6.7,0.6-8.1,6.9c-0.9,4.3-1.1,13.7,0,20.2C7,129.7,7.2,129.4,7.4,129.2z"/>
				<path class="st2" d="M7.4,129.2c1.5-1.4,3.4-2.6,5.5-3c2.2-0.5,4.7-0.8,6.8,0.2c1,0.5,1.7,1.3,2.5,2.1c1.1-7,2-19.8,2-19.8
					s-1.9-7.4-9.4-5.9c0,0-6.7,0.6-8.1,6.9c-0.9,4.3-1.1,13.7,0,20.2C7,129.7,7.2,129.4,7.4,129.2z"/>
				<path class="st2" d="M24.2,108.7c0,0-1.2-4.6-5.4-5.8c0.1,0.1,0.3,0.2,0.4,0.4c1.7,1.9,2.3,4.1,2.1,6.6
					c-0.4,4-1.4,15.1-1.4,16.7c0.9,0.5,1.6,1.2,2.3,2C23.4,121.4,24.2,108.7,24.2,108.7z"/>
				<path class="st0" d="M12.9,126.2c0.6-0.1,1.3-0.3,1.9-0.3l2.2-20.7c0,0-1-1.4-4.6-0.4c0,0-4.7,1.1-5.5,7.2
					c-0.7,5-0.1,12.8,0.7,17.1C9,127.7,10.9,126.6,12.9,126.2z"/>
				<path class="st0" d="M22.3,127.9c-2.7-2-4.6-3.9-8.8-2.5c-2,0.6-4,1.6-5.7,2.9c-2.1,1.5-2.9,3.7-3.9,5.9c-1,2.5-1.9,5.1-1.9,7.8
					c0,1.6,0.4,3.2,1,4.7c0.4,1,0.9,3,2.1,3.2c0.6,0.1,0.9-0.2,1.1-0.7c0.2,0.4,0.4,0.8,0.6,1.1c0.7,1.1,1.8,1.5,2.9,0.7
					c0.3-0.2,0.4-0.4,0.5-0.7c0.3,0.4,0.6,0.7,0.9,0.9c1.5,1,2.6,0.2,2.5-1.5c-0.1-1.9-0.8-3.4-1.4-5.1c-0.3-0.8-0.4-1.6-0.3-2.5
					c0,0.2,0.1,0.3,0.1,0.5c0.7,2.4,2.1,6,4.6,6.9c2.4,0.8,2.4-2.5,2-3.8c-0.5-1.8-1.6-3.5-2.2-5.3c-0.5-1.4-0.9-3.1-0.7-4.6
					c0.2-1.1,1.3-3.6,2.6-1.9c0.4,0.5,0.5,1.3,0.6,2c0.1,1.5-1.2,5.8,0.9,6.5c1.1,0.3,2-0.8,2.5-1.6c1.4-2.4,1.6-5.5,1.3-8.2
					C23.6,131.1,22.8,129.2,22.3,127.9z"/>
				<path class="st4" d="M8.1,133.2c1.5-0.7,3.1-1.2,4.7-1.5c0.1-1.1,0.5-2.2,0.7-3c0.3-1.2,0.7-2.3,1.3-3.3
					c-0.4,0.1-0.7,0.2-1.1,0.3c-2,0.6-4,1.6-5.7,2.9c-2.1,1.5-2.9,3.7-3.9,5.9c-0.2,0.5-0.4,1.1-0.6,1.6
					C4.9,134.9,6.6,133.9,8.1,133.2z"/>
				<path class="st0" d="M43.2,57.2c0,0-11.6,1.1-18.8,6.4c-7.2,5.3,8.4,30.3,15.1,23.3C46.1,79.8,45.7,56.8,43.2,57.2z"/>
				<path class="st0" d="M30.5,61.3c0,0-6.7,1.2-7.2,6.5c-0.5,5.3,4.2,12.2,7.2,15.7c0,0-6.3-8.6-6-13.9
					C24.8,64.3,30.5,61.3,30.5,61.3z"/>
				<path class="st5" d="M11.7,134.7c0-0.1-0.1,0-0.1,0c-0.5,3.2-0.5,6.3,0.9,9.3c0,0,0,0,0,0C11.6,141.1,11.4,137.8,11.7,134.7z"/>
				<path class="st5" d="M10.6,150.4c-2.8-4.3-3.9-9.7-2.7-14.8c0,0-0.1,0-0.1,0c-1.7,4.4-0.7,11.3,2.6,14.9
					C10.5,150.6,10.6,150.5,10.6,150.4z"/>
				<path class="st0" d="M23.8,132.4c-0.1-1.4-0.9-3.2-1.4-4.6c-2.7-2-4.6-3.9-8.8-2.5c0,0,0,0,0,0c2.5-0.3,5.9-0.5,6.2,2.3
					c0.1,1-0.3,3.5-1.7,3.6c-3,0.2-3.9,4.6-3.2,7.1c0.5,2,0.8,2.8,1.2,5.6c0.2,1.2-1,2.1-2,1.2c-1.2-1.1-1.7-2.7-2.1-4.2
					c-0.4-1.7-0.4-3.7-0.4-5.5c-0.7,2.3-0.8,5-0.3,7.3c0.2,1.1,1,3.6-0.1,4.5c-1.3,1.1-2.7-1.4-3-2.3c-0.8-2.4-0.7-4.7-0.6-7.1
					c-0.7,2.4-0.9,4.9-0.1,7.4c0.1,0.4,1.3,3.5-0.3,3.3c-1.7-0.3-2.5-3.2-2.8-4.6c-0.4-1.9-0.5-3.7-0.4-5.6c-0.5,2-0.6,4.1-0.2,6.1
					c0.2,1.2,1,2.5,0.8,3.7c-0.1,0.4-0.4,0.6-0.7,0.6c0.3,0.6,0.8,1.2,1.4,1.3c0.6,0.1,0.9-0.2,1.1-0.7c0.2,0.4,0.4,0.8,0.6,1.1
					c0.7,1.1,1.8,1.5,2.9,0.7c0.3-0.2,0.4-0.4,0.5-0.7c0.3,0.4,0.6,0.7,0.9,0.9c1.5,1,2.6,0.2,2.5-1.5c-0.1-1.9-0.8-3.4-1.4-5.1
					c-0.3-0.8-0.4-1.6-0.3-2.5c0,0.2,0.1,0.3,0.1,0.5c0.7,2.4,2.1,6,4.6,6.9c2.4,0.8,2.4-2.5,2-3.8c-0.5-1.8-1.6-3.5-2.2-5.3
					c-0.5-1.4-0.9-3.1-0.7-4.6c0.2-1.1,1.3-3.6,2.6-1.9c0.4,0.5,0.5,1.3,0.6,2c0.1,1.5-1.2,5.8,0.9,6.5c1.1,0.3,2-0.8,2.5-1.6
					C23.9,138.3,24.1,135.1,23.8,132.4z"/>
			</g>
			<path class="st5" d="M4.4,144c-0.4-1.6-0.5-3.3-0.5-5c-0.1,1.2,0,2.4,0,3.4c0,0.3,0,0.6,0,0.8c0.4,2.1,1.2,4.2,2.4,6
				c0,0,0.1,0,0.1,0C5.7,147.5,4.8,145.9,4.4,144z"/>
		</g>
		<g>
			<g>
				<path class="st0" d="M113.8,73.9c0,0,12.3,22.2,12.2,42.4c0,0-0.1,8.5-4.4,8.7c-4.3,0.2-11.4-1.6-13.1-10.2
					c-1.7-8.9-8.1-23-13.4-30.8L113.8,73.9z"/>
				<path class="st1" d="M116.3,109c2.6,0.1,4.9,1.1,6.9,2.8c0.8,0.7,2,2,2.8,3.3c0,0.4,0,0.8,0,1.2c0,0-0.1,8.5-4.4,8.7
					c-4.3,0.2-11.4-1.6-13.1-10.2c-0.2-0.8-0.4-1.6-0.6-2.5C110.2,110.2,113.2,108.9,116.3,109z"/>
				<path class="st2" d="M115.7,97.6c-0.7-2.5-1.7-4.8-2.8-7.2c1.8-2.8,3.3-5.9,4.6-9c3.3,7.4,7.6,19.3,8.4,31.1
					c-2.6-1.9-5.5-3.2-8.5-4.4C117.3,104.6,116.7,101,115.7,97.6z"/>
				<path class="st1" d="M104.1,101.2c-0.2-0.4-0.3-0.8-0.5-1.2c4.9-4.5,11.1-7.7,17.5-9.4c0.3,0.8,0.5,1.5,0.8,2.3
					C115.4,94,109.1,97,104.1,101.2z"/>
				<path class="st3" d="M113.8,73.9c0,0,1.1,2,2.6,5.2c-0.6,3.4-2,6.8-4,9.6c-1.2,1.7-3,3.6-3.4,5.8c-0.4,2,5.3,17,5.1,23
					c0,1.8-0.2,3.7-0.4,5.5c-2.4-1.5-4.5-4.1-5.3-8.2c-1.7-8.9-8.1-23-13.4-30.8L113.8,73.9z"/>
				<path class="st2" d="M121.6,139c-1.2-1.7-3-3.1-4.9-3.9c-2-0.8-4.5-1.6-6.7-1c-1.1,0.3-1.9,1-2.8,1.6c0.1-7.1,1.4-19.8,1.4-19.8
					s3.2-7,10.3-4.2c0,0,6.5,1.8,6.8,8.2c0.2,4.4-1.3,13.7-3.5,19.9C121.9,139.5,121.7,139.2,121.6,139z"/>
				<path class="st2" d="M121.6,139c-1.2-1.7-3-3.1-4.9-3.9c-2-0.8-4.5-1.6-6.7-1c-1.1,0.3-1.9,1-2.8,1.6c0.1-7.1,1.4-19.8,1.4-19.8
					s3.2-7,10.3-4.2c0,0,6.5,1.8,6.8,8.2c0.2,4.4-1.3,13.7-3.5,19.9C121.9,139.5,121.7,139.2,121.6,139z"/>
				<path class="st2" d="M108.5,115.9c0,0,2-4.4,6.3-4.8c-0.1,0.1-0.3,0.2-0.4,0.3c-2,1.6-3,3.6-3.2,6.1c-0.3,4-1.2,15.1-1.5,16.7
					c-1,0.3-1.8,0.9-2.6,1.5C107.2,128.6,108.5,115.9,108.5,115.9z"/>
				<path class="st0" d="M116.7,135c-0.6-0.2-1.2-0.5-1.8-0.7l1.4-20.7c0,0,1.2-1.2,4.6,0.4c0,0,4.4,1.9,4.2,8.1
					c-0.1,5-2.1,12.6-3.6,16.8C120.2,137.2,118.6,135.8,116.7,135z"/>
				<path class="st0" d="M107.1,135.1c3-1.5,5.2-3,9.1-1c1.9,1,3.7,2.3,5.1,3.8c1.8,1.8,2.3,4.1,2.8,6.5c0.6,2.6,1,5.4,0.5,8.1
					c-0.3,1.6-1,3.1-1.7,4.5c-0.5,0.9-1.4,2.8-2.6,2.8c-0.6,0-0.9-0.4-1-0.9c-0.3,0.3-0.5,0.7-0.8,1c-0.9,0.9-2,1.1-2.9,0.2
					c-0.2-0.2-0.3-0.5-0.4-0.8c-0.3,0.3-0.7,0.6-1.1,0.7c-1.7,0.7-2.6-0.2-2.2-1.9c0.4-1.8,1.3-3.2,2.3-4.8c0.4-0.7,0.6-1.6,0.7-2.4
					c-0.1,0.2-0.1,0.3-0.2,0.5c-1.1,2.2-3.1,5.6-5.7,6c-2.5,0.4-2-2.9-1.4-4.1c0.8-1.7,2.2-3.2,3.1-4.9c0.7-1.3,1.5-2.9,1.5-4.4
					c0-1.1-0.7-3.8-2.3-2.3c-0.5,0.5-0.8,1.2-0.9,1.8c-0.4,1.4,0.2,6-2,6.2c-1.1,0.1-1.9-1.2-2.2-2c-1-2.6-0.6-5.7,0.1-8.3
					C105.3,138.1,106.4,136.4,107.1,135.1z"/>
				<path class="st4" d="M120.2,142.7c-1.4-0.9-2.8-1.8-4.4-2.2c0-1.1-0.1-2.2-0.1-3.1c0-1.2-0.3-2.3-0.7-3.4c0.3,0.1,0.7,0.3,1,0.5
					c1.9,1,3.7,2.3,5.1,3.8c1.8,1.8,2.3,4.1,2.8,6.5c0.1,0.6,0.2,1.1,0.4,1.7C123.1,145,121.5,143.7,120.2,142.7z"/>
				<path class="st0" d="M98.6,61.9c0,0,11.2,3,17.4,9.5c6.2,6.4-13.4,28.4-18.8,20.4C91.8,83.7,96.1,61.2,98.6,61.9z"/>
				<path class="st0" d="M110.4,68.1c0,0,6.4,2.3,6,7.7c-0.4,5.3-6.2,11.3-9.8,14.3c0,0,7.7-7.5,8.3-12.7
					C115.4,72.1,110.4,68.1,110.4,68.1z"/>
				<path class="st5" d="M116.4,143.7c0-0.1,0.1,0,0.1,0.1c0,3.3-0.6,6.3-2.5,9c0,0,0,0,0,0C115.5,150,116.2,146.8,116.4,143.7z"/>
				<path class="st5" d="M114.9,159.4c3.5-3.8,5.5-8.9,5.2-14.1c0,0,0.1,0,0.1,0c1,4.7-1.2,11.3-5.1,14.2
					C114.9,159.5,114.8,159.4,114.9,159.4z"/>
				<path class="st0" d="M104.9,139.4c0.4-1.3,1.5-3,2.2-4.3c3-1.5,5.2-3,9.1-1c0,0,0,0,0,0c-2.4-0.7-5.7-1.5-6.5,1.3
					c-0.3,1-0.3,3.5,1.1,3.8c2.9,0.7,3.1,5.2,2,7.5c-0.9,1.8-1.3,2.7-2.2,5.3c-0.4,1.1,0.6,2.2,1.8,1.5c1.4-0.8,2.1-2.4,2.7-3.8
					c0.7-1.7,1-3.6,1.3-5.4c0.3,2.3-0.1,5-0.9,7.2c-0.4,1-1.6,3.4-0.7,4.5c1.1,1.3,2.9-0.9,3.3-1.8c1.2-2.2,1.5-4.5,1.8-6.9
					c0.3,2.5,0,4.9-1.2,7.3c-0.2,0.4-1.8,3.3-0.3,3.3c1.7,0,3-2.8,3.5-4.1c0.8-1.8,1.2-3.6,1.4-5.4c0.2,2-0.1,4.1-0.8,6.1
					c-0.4,1.1-1.4,2.3-1.4,3.5c0,0.4,0.3,0.6,0.6,0.7c-0.4,0.6-0.9,1-1.6,1c-0.6,0-0.9-0.4-1-0.9c-0.3,0.3-0.5,0.7-0.8,1
					c-0.9,0.9-2,1.1-2.9,0.2c-0.2-0.2-0.3-0.5-0.4-0.8c-0.3,0.3-0.7,0.6-1.1,0.7c-1.7,0.7-2.6-0.2-2.2-1.9c0.4-1.8,1.3-3.2,2.3-4.8
					c0.4-0.7,0.6-1.6,0.7-2.4c-0.1,0.2-0.1,0.3-0.2,0.5c-1.1,2.2-3.1,5.6-5.7,6c-2.5,0.4-2-2.9-1.4-4.1c0.8-1.7,2.2-3.2,3.1-4.9
					c0.7-1.3,1.5-2.9,1.5-4.4c0-1.1-0.7-3.8-2.3-2.3c-0.5,0.5-0.8,1.2-0.9,1.8c-0.4,1.4,0.2,6-2,6.2c-1.1,0.1-1.9-1.2-2.2-2
					C103.8,145.1,104.2,142,104.9,139.4z"/>
			</g>
			<path class="st5" d="M122.1,154.1c0.6-1.5,1.1-3.2,1.3-4.8c-0.1,1.2-0.4,2.4-0.6,3.3c-0.1,0.3-0.1,0.6-0.2,0.8
				c-0.8,2-1.9,3.9-3.3,5.5c0,0-0.1,0-0.1-0.1C120.1,157.2,121.3,155.9,122.1,154.1z"/>
		</g>
		<path class="st0" d="M33.8,116.1c0,0-2.9,3.1-3.2,8.6c-0.4,5.5,27.2,18.2,34.4,20.3c7.2,2.1,34-10.2,34.3-15.9
			c0.3-5.7-0.4-8.1-3.8-8.6C92.1,120.1,33.8,116.1,33.8,116.1z"/>
		<path class="st0" d="M35.8,128.1c-0.2-4,0.3-7.9,0.7-11.9c-1.7-0.1-2.6-0.2-2.6-0.2s-2.9,3.1-3.2,8.6c-0.1,1.6,2,3.7,5.3,6
			C35.9,129.8,35.8,129,35.8,128.1z"/>
		<path class="st0" d="M95.5,120.5c-0.4,0-1.3-0.1-2.7-0.2c0,0.1,0,0.2,0,0.2c0.1,2.3,0.1,4.7-0.1,7c-0.3,3-0.9,6-1.3,9.1
			c4.6-2.7,7.9-5.5,8-7.4C99.6,123.4,98.9,120.9,95.5,120.5z"/>
		<path class="st6" d="M103.4,65.5c-1.9-6.9-24.5-9-24.5-9l-7.5-0.5l-7.5-0.8c0,0-22.7-1.8-25.7,4.7c-3,6.4-6.9,54.4-4.4,58.7
			c1.8,2.9,12,7.1,23.5,9.6c2.6,0.6,5,0.8,7.6,1.1c2.6,0.1,5.5,0.3,8.1,0.2c11.7-0.5,22.5-2.9,24.8-5.5
			C101,120.3,105.3,72.4,103.4,65.5z"/>
		<path class="st0" d="M101.6,65c-1.8-6.5-23.2-8.5-23.2-8.5l-7.1-0.4l-7.1-0.8c0,0-21.4-1.7-24.3,4.4c-2.9,6.1-6.6,51.4-4.1,55.4
			c1.7,2.8,11.4,6.7,22.2,9.1c2.4,0.5,4.7,0.7,7.1,1.1c2.5,0.1,5.2,0.3,7.7,0.2c11-0.5,21.3-2.8,23.4-5.2
			C99.4,116.8,103.4,71.5,101.6,65z"/>
		<path class="st7" d="M66.8,125.4c-9-0.5-18.1-3.3-24.9-9.4c-4.3-3.8-7-8.3-8.8-13.3c-0.3,8.1-0.2,14.5,0.7,15.9
			c1.8,2.9,12,7.1,23.5,9.6c2.6,0.6,5,0.8,7.6,1.1c2.6,0.1,5.5,0.3,8.1,0.2c11.7-0.5,22.5-2.9,24.8-5.5c0.9-1,1.8-5,2.7-10.6
			C92.3,122.6,78.8,126.1,66.8,125.4z"/>
		<path class="st8" d="M70.7,68.7c6.4,0.4,12.9-0.4,19.1-2.1c3.5-1,7.7-2.1,10.4-4.6c-6.8-4.1-21.3-5.4-21.3-5.4l-7.5-0.5l-7.5-0.8
			c0,0-13.5-1.1-21.1,1.4C49.6,64.4,60.7,68.1,70.7,68.7z"/>
		<g>
			<g>
				<path class="st0" d="M51.1,42.1c-0.4,4.8-4.7,8.4-9.5,8l0,0c-4.8-0.4-8.4-4.7-8-9.5l0.5-6.1c0.4-4.8,4.7-8.4,9.5-8l0,0
					c4.8,0.4,8.4,4.7,8,9.5L51.1,42.1z"/>
				<path class="st9" d="M50.3,41.7c-0.4,4.3-4.2,7.6-8.5,7.2l0,0c-4.3-0.4-7.6-4.2-7.2-8.5l0.5-5.5c0.4-4.3,4.2-7.6,8.5-7.2l0,0
					c4.3,0.4,7.6,4.2,7.2,8.5L50.3,41.7z"/>
				<g>
					<path class="st10" d="M40.8,32c-0.1,1-1,1.7-1.9,1.6c-1-0.1-1.7-1-1.6-1.9c0.1-1,1-1.7,1.9-1.6C40.1,30.1,40.9,31,40.8,32z"/>
					<path class="st11" d="M39.2,31.2c0,0.3-0.3,0.5-0.5,0.4c-0.3,0-0.5-0.3-0.4-0.5c0-0.3,0.3-0.5,0.5-0.4
						C39,30.7,39.2,30.9,39.2,31.2z"/>
					<path class="st11" d="M38.1,32.1c0,0.1-0.1,0.2-0.2,0.2c-0.1,0-0.2-0.1-0.2-0.2c0-0.1,0.1-0.2,0.2-0.2
						C38.1,31.9,38.2,32,38.1,32.1z"/>
				</g>
				<g>
					<path class="st10" d="M39.8,39.5c-0.1,1-1,1.7-1.9,1.6c-1-0.1-1.7-1-1.6-1.9c0.1-1,1-1.7,1.9-1.6
						C39.2,37.6,39.9,38.5,39.8,39.5z"/>
					<path class="st11" d="M38.2,38.7c0,0.3-0.3,0.5-0.5,0.4c-0.3,0-0.5-0.3-0.4-0.5c0-0.3,0.3-0.5,0.5-0.4
						C38.1,38.2,38.3,38.4,38.2,38.7z"/>
					<path class="st11" d="M37.2,39.6c0,0.1-0.1,0.2-0.2,0.2c-0.1,0-0.2-0.1-0.2-0.2c0-0.1,0.1-0.2,0.2-0.2
						C37.1,39.4,37.2,39.5,37.2,39.6z"/>
				</g>
				<path class="st8" d="M43.7,26.4c-0.9-0.1-1.9,0-2.7,0.2c-1.5,3.8-2.1,7.8-2.2,11.9c0,2.4-0.1,4.8,0,7.2c0,1.2,0.1,2.4,0.2,3.7
					c0.8,0.4,1.8,0.6,2.7,0.7c4.8,0.4,9.1-3.2,9.5-8l0.5-6.1C52.1,31.1,48.5,26.8,43.7,26.4z"/>
			</g>
			<g>
				<path class="st0" d="M93.7,45.7c-0.4,4.8,3.2,9.1,8,9.5l0,0c4.8,0.4,9.1-3.2,9.5-8l0.5-6.1c0.4-4.8-3.2-9.1-8-9.5l0,0
					c-4.8-0.4-9.1,3.2-9.5,8L93.7,45.7z"/>
				<path class="st9" d="M94.6,45.5c-0.4,4.3,2.9,8.2,7.2,8.5l0,0c4.3,0.4,8.2-2.9,8.5-7.2l0.5-5.5c0.4-4.3-2.9-8.2-7.2-8.5l0,0
					c-4.3-0.4-8.2,2.9-8.5,7.2L94.6,45.5z"/>
				<g>
					<path class="st10" d="M105.6,37.5c-0.1,1,0.6,1.9,1.6,1.9c1,0.1,1.9-0.6,1.9-1.6c0.1-1-0.6-1.9-1.6-1.9
						C106.5,35.8,105.7,36.5,105.6,37.5z"/>
					<path class="st11" d="M107.3,37c0,0.3,0.2,0.5,0.4,0.5c0.3,0,0.5-0.2,0.5-0.4c0-0.3-0.2-0.5-0.4-0.5
						C107.5,36.6,107.3,36.8,107.3,37z"/>
					<path class="st11" d="M108.2,38.1c0,0.1,0.1,0.2,0.2,0.2c0.1,0,0.2-0.1,0.2-0.2c0-0.1-0.1-0.2-0.2-0.2
						C108.3,37.9,108.2,38,108.2,38.1z"/>
				</g>
				<g>
					<path class="st10" d="M105.3,45.1c-0.1,1,0.6,1.9,1.6,1.9c1,0.1,1.9-0.6,1.9-1.6c0.1-1-0.6-1.9-1.6-1.9
						C106.2,43.3,105.4,44.1,105.3,45.1z"/>
					<path class="st11" d="M107,44.6c0,0.3,0.2,0.5,0.4,0.5c0.3,0,0.5-0.2,0.5-0.4c0-0.3-0.2-0.5-0.4-0.5
						C107.2,44.1,107,44.3,107,44.6z"/>
					<path class="st11" d="M107.8,45.7c0,0.1,0.1,0.2,0.2,0.2c0.1,0,0.2-0.1,0.2-0.2c0-0.1-0.1-0.2-0.2-0.2
						C108,45.4,107.9,45.5,107.8,45.7z"/>
				</g>
				<path class="st8" d="M103.7,31.6c0.9,0.1,1.8,0.3,2.7,0.7c0.9,4,0.8,8.1,0.1,12.1c-0.4,2.4-0.7,4.7-1.2,7.1
					c-0.2,1.2-0.5,2.4-0.8,3.6c-0.9,0.2-1.8,0.3-2.8,0.2c-4.8-0.4-8.4-4.7-8-9.5l0.5-6.1C94.6,34.7,98.9,31.1,103.7,31.6z"/>
			</g>
			<g>
				<path class="st0" d="M79.9,3.4c-1.3-0.3-2.7-0.5-4.1-0.6c-1.4-0.1-2.8-0.1-4.2-0.1C53.7,3.4,42.3,17.4,41.1,32.4
					C39.6,49.5,41,56.6,56,62.8c3.3,1.3,8.8,2.9,14.5,3.1c5.7,0.7,10.9,0.1,14.3-0.7c15.9-3.6,18.5-10.4,19.9-27.4
					C106.1,22.8,97.3,7.1,79.9,3.4z"/>
				<path class="st2" d="M41.5,49.2c1.6,6.1,5.7,10.1,14.6,13.7c3.3,1.3,8.8,2.9,14.5,3.1c5.7,0.7,10.9,0.1,14.3-0.7
					c9.9-2.2,14.7-5.7,17.2-12.2C83.4,44.6,61.2,43.9,41.5,49.2z"/>
				<path class="st12" d="M46.3,24.3c1.2,0.5,1.5-1.1,2.1-2c1.3-2,2.6-3.9,4.2-5.7c2.9-3.2,6.2-5.9,10.2-7.6
					c-0.6-1.4-1.4-2.7-2.3-3.9c-8.1,3.3-14,9.9-17,17.5C44.3,23.3,45.3,23.9,46.3,24.3z"/>
				<path class="st12" d="M96.7,20.9c0.7,1.5,1.3,3,1.9,4.6c0,0,0.1,0,0.1-0.1c1.3-0.9,2.7-1.7,4-2.6c-1.6-4.2-4.1-8.1-7.4-11.3
					c-0.9,0.9-1.9,1.7-2.8,2.6C94.1,16.3,95.6,18.4,96.7,20.9z"/>
				<path class="st8" d="M99.5,39.2c-1.2,14-14.1,24.4-28.9,23.1C55.9,61,44.9,48.6,46.1,34.6c1.2-14,14.1-24.4,28.9-23.1
					C89.7,12.7,100.7,25.1,99.5,39.2z"/>
				<g>
					
						<radialGradient id="SVGID_3_" cx="-27.8973" cy="135.579" r="32.7628" gradientTransform="matrix(0.9964 8.520000e-02 -8.520000e-02 0.9964 103.2074 -96.7908)" gradientUnits="userSpaceOnUse">
						<stop  offset="0.1486" style="stop-color:#21687E"/>
						<stop  offset="0.491" style="stop-color:#023F5F"/>
						<stop  offset="0.9801" style="stop-color:#000000"/>
					</radialGradient>
					<path class="st13" d="M98.1,37.5c-1.1,13.2-13.3,22.9-27.2,21.7C57,58,46.7,46.4,47.8,33.2C48.9,20,61.1,10.3,75,11.5
						C88.9,12.6,99.2,24.3,98.1,37.5z"/>
					
						<radialGradient id="SVGID_4_" cx="-20.1994" cy="97.473" r="65.4567" gradientTransform="matrix(0.9964 8.520000e-02 -8.520000e-02 0.9964 103.2074 -96.7908)" gradientUnits="userSpaceOnUse">
						<stop  offset="0.2849" style="stop-color:#21687E"/>
						<stop  offset="0.4225" style="stop-color:#0D3B59"/>
						<stop  offset="0.5885" style="stop-color:#05294A"/>
						<stop  offset="0.7076" style="stop-color:#031B31"/>
						<stop  offset="0.8978" style="stop-color:#01070D"/>
						<stop  offset="1" style="stop-color:#000000"/>
					</radialGradient>
					<path class="st14" d="M96.3,26.4c1,3.3,1.3,6.7,0.6,10.4c-1.7,8.5-8.9,14.6-17.2,16.2c-7.5,1.5-16.7,0.6-23.1-4
						c-9.7-7-9.5-19.4-3.7-28.5c-2.9,3.5-4.7,7.8-5.1,12.6C46.7,46.4,57,58,70.9,59.2c13.9,1.2,26-8.5,27.2-21.7
						C98.4,33.6,97.7,29.8,96.3,26.4z"/>
					
						<radialGradient id="SVGID_5_" cx="-48.9146" cy="115.8472" r="41.1494" gradientTransform="matrix(0.9964 8.520000e-02 -8.520000e-02 0.9964 103.2074 -96.7908)" gradientUnits="userSpaceOnUse">
						<stop  offset="0.2851" style="stop-color:#FFFFFF"/>
						<stop  offset="0.6912" style="stop-color:#6C6C6C"/>
						<stop  offset="1" style="stop-color:#000000"/>
					</radialGradient>
					<path class="st15" d="M50.8,38.2c0.1,1.4,0.2,2.8,0.5,4.2c0.2,1.2,0.6,2.3,0.9,3.4c1,1,2.1,2,3.2,3c1.8,1.5,3.8,3,5.8,4.2
						c-1.8-3.4-2.9-7.3-3.2-11.2C55.7,40.7,53.2,39.6,50.8,38.2z"/>
					
						<radialGradient id="SVGID_6_" cx="-48.9118" cy="115.8484" r="41.147" gradientTransform="matrix(0.9964 8.520000e-02 -8.520000e-02 0.9964 103.2074 -96.7908)" gradientUnits="userSpaceOnUse">
						<stop  offset="0.2851" style="stop-color:#FFFFFF"/>
						<stop  offset="0.6912" style="stop-color:#6C6C6C"/>
						<stop  offset="1" style="stop-color:#000000"/>
					</radialGradient>
					<path class="st16" d="M73.1,13.4c-7.2,0.3-14.5,3.5-18.5,9.7c-2.2,3.5-3.5,7.7-3.8,11.9c2.2,1.1,4.5,2,6.8,2.9
						c0.1,0.1,0.3,0.1,0.4,0.2c0.1-2.2,0.3-4.3,0.9-6.4c1.4-5.7,4.7-11,9.7-14.3c2.8-1.8,5.9-3.1,9.2-3.8
						C76.3,13.4,74.7,13.3,73.1,13.4z"/>
				</g>
			</g>
		</g>
		<path class="st17" d="M87.3,76.3l-4.9-0.4l-25.8-2.2l-4.9-0.4c-4.8-0.4-5.9,3.2-6.8,6.2l-1.5,17.1L42.4,110l0,0.5l0.1,0
			c0.3,2.9,1,6.3,5.6,6.7l4.9,0.4l25.8,2.2l4.9,0.4c4.6,0.4,5.8-2.9,6.6-5.7l0.1,0l0-0.5l1.1-13.4l1.5-17.1
			C92.6,80.5,92.1,76.7,87.3,76.3z"/>
		<path class="st0" d="M86.4,76.9l-4.6-0.4l-24.3-2.1L53,74.1c-4.5-0.4-5.6,3.1-6.4,5.8L45.3,96l-1.1,12.6l0,0.5l0.1,0
			c0.3,2.7,0.9,5.9,5.2,6.3l4.6,0.4l24.3,2.1l4.6,0.4c4.3,0.4,5.5-2.7,6.2-5.3l0.1,0l0-0.5l1.1-12.6l1.4-16.1
			C91.4,80.9,90.9,77.3,86.4,76.9z"/>
		<g>
			<path class="st9" d="M85.4,104.3l-1.1-0.1l-5.6-0.5l-1.1-0.1c-1.1-0.1-1.3,0.7-1.5,1.3l-0.3,3.7l-0.2,2.9l0,0.1l0,0
				c0.1,0.6,0.2,1.4,1.2,1.5l1.1,0.1l5.6,0.5l1.1,0.1c1,0.1,1.3-0.6,1.4-1.2l0,0l0-0.1l0.3-2.9l0.3-3.7
				C86.6,105.2,86.5,104.4,85.4,104.3z"/>
			<path class="st0" d="M84.9,104.7l-0.9-0.1l-4.9-0.4l-0.9-0.1c-0.9-0.1-1.1,0.6-1.3,1.2l-0.3,3.2l-0.2,2.5l0,0.1l0,0
				c0.1,0.5,0.2,1.2,1,1.3l0.9,0.1l4.9,0.4l0.9,0.1c0.9,0.1,1.1-0.5,1.2-1.1l0,0l0-0.1l0.2-2.5l0.3-3.2
				C85.9,105.5,85.8,104.8,84.9,104.7z"/>
			<path class="st0" d="M84.1,105.3l-0.7-0.1l-3.9-0.3l-0.7-0.1c-0.7-0.1-0.9,0.1-1,0.3l-0.1,0.9l-0.1,0.7l0,0l0,0
				c0.1,0.2,0.2,0.4,0.9,0.4l0.7,0.1l3.9,0.3l0.7,0.1c0.7,0.1,0.8-0.1,0.9-0.3l0,0l0,0l0.1-0.7l0.1-0.9
				C85,105.6,84.9,105.3,84.1,105.3z"/>
			<path class="st0" d="M86.2,80.1l-2.1-0.2L73.2,79l-2.1-0.2c-0.5,0-1.8-0.2-2.3-0.2l-2.1-0.2l-10.9-0.9l-2.1-0.2
				c-2-0.2-2.5,0.8-2.8,1.6l-0.4,4.7l-0.3,3.7l0,0.1l0,0c0.2,0.8,0.5,1.7,2.4,1.9l2.1,0.2l10.9,0.9l2.1,0.2c0.5,0,1.8,0.2,2.3,0.2
				l2.1,0.2l10.9,0.9l2.1,0.2c1.9,0.2,2.4-0.7,2.7-1.5l0,0l0-0.1l0.3-3.7l0.4-4.7C88.4,81.3,88.2,80.3,86.2,80.1z"/>
			<path class="st9" d="M74.1,103.3l-1.1-0.1l-5.6-0.5l-1.1-0.1c-1.1-0.1-1.3,0.7-1.5,1.3l-0.3,3.7l-0.2,2.9l0,0.1l0,0
				c0.1,0.6,0.2,1.4,1.2,1.5l1.1,0.1l5.6,0.5l1.1,0.1c1,0.1,1.3-0.6,1.4-1.2l0,0l0-0.1l0.2-2.9l0.3-3.7
				C75.2,104.3,75.1,103.4,74.1,103.3z"/>
			<path class="st0" d="M73.5,103.8l-0.9-0.1l-4.9-0.4l-0.9-0.1c-0.9-0.1-1.1,0.6-1.3,1.2l-0.3,3.2l-0.2,2.5l0,0.1l0,0
				c0.1,0.5,0.2,1.2,1,1.3l0.9,0.1l4.9,0.4l0.9,0.1c0.9,0.1,1.1-0.5,1.2-1.1l0,0l0-0.1l0.2-2.5l0.3-3.2
				C74.5,104.5,74.4,103.8,73.5,103.8z"/>
			<path class="st0" d="M72.8,104.3l-0.7-0.1l-3.9-0.3l-0.7-0.1c-0.7-0.1-0.9,0.1-1,0.3l-0.1,0.9l-0.1,0.7l0,0l0,0
				c0.1,0.2,0.2,0.4,0.9,0.4l0.7,0.1l3.9,0.3l0.7,0.1c0.7,0.1,0.8-0.1,0.9-0.3l0,0l0,0l0.1-0.7l0.1-0.9
				C73.6,104.6,73.5,104.4,72.8,104.3z"/>
			<g>
				<path class="st2" d="M72.7,97.1c-0.1,1.3-1.3,2.3-2.6,2.2l0,0c-1.3-0.1-2.3-1.3-2.2-2.6l0,0c0.1-1.3,1.3-2.3,2.6-2.2l0,0
					C71.8,94.6,72.8,95.8,72.7,97.1L72.7,97.1z"/>
				<path class="st2" d="M79.2,97.7c-0.1,1.3-1.3,2.3-2.6,2.2l0,0c-1.3-0.1-2.3-1.3-2.2-2.6l0,0c0.1-1.3,1.3-2.3,2.6-2.2l0,0
					C78.4,95.2,79.4,96.3,79.2,97.7L79.2,97.7z"/>
				<path class="st2" d="M85.8,98.2c-0.1,1.3-1.3,2.3-2.6,2.2l0,0c-1.3-0.1-2.3-1.3-2.2-2.6l0,0c0.1-1.3,1.3-2.3,2.6-2.2l0,0
					C84.9,95.8,85.9,96.9,85.8,98.2L85.8,98.2z"/>
			</g>
			
				<rect x="46.1" y="95.2" transform="matrix(8.515309e-02 -0.9964 0.9964 8.515309e-02 -50.4467 149.1293)" class="st2" width="19.7" height="13.7"/>
			<g>
				<g>
					
						<rect x="50.8" y="93.6" transform="matrix(8.504882e-02 -0.9964 0.9964 8.504882e-02 -46.9281 139.6439)" class="st0" width="3.6" height="3.6"/>
					
						<rect x="54.7" y="93.9" transform="matrix(8.509374e-02 -0.9964 0.9964 8.509374e-02 -43.6486 143.8894)" class="st0" width="3.6" height="3.6"/>
					
						<rect x="58.7" y="94.3" transform="matrix(8.505443e-02 -0.9964 0.9964 8.505443e-02 -40.3649 148.1435)" class="st0" width="3.6" height="3.6"/>
					
						<rect x="50.4" y="97.8" transform="matrix(8.504882e-02 -0.9964 0.9964 8.504882e-02 -51.4313 143.1208)" class="st0" width="3.6" height="3.6"/>
					
						<rect x="54.4" y="98.1" transform="matrix(8.483282e-02 -0.9964 0.9964 8.483282e-02 -48.1384 147.3941)" class="st0" width="3.6" height="3.6"/>
					
						<rect x="58.3" y="98.5" transform="matrix(8.505443e-02 -0.9964 0.9964 8.505443e-02 -44.8679 151.6202)" class="st0" width="3.6" height="3.6"/>
				</g>
				<g>
					
						<rect x="50.1" y="102" transform="matrix(8.505089e-02 -0.9964 0.9964 8.505089e-02 -56.0153 146.6602)" class="st0" width="3.6" height="3.6"/>
					
						<rect x="54" y="102.4" transform="matrix(8.529109e-02 -0.9964 0.9964 8.529109e-02 -52.7452 150.885)" class="st0" width="3.6" height="3.6"/>
					
						<rect x="58" y="102.7" transform="matrix(8.531946e-02 -0.9964 0.9964 8.531946e-02 -49.4655 155.1314)" class="st0" width="3.6" height="3.6"/>
					
						<rect x="49.7" y="106.2" transform="matrix(8.507511e-02 -0.9964 0.9964 8.507511e-02 -60.52 150.1355)" class="st0" width="3.6" height="3.6"/>
					
						<rect x="53.7" y="106.6" transform="matrix(8.509374e-02 -0.9964 0.9964 8.509374e-02 -57.2389 154.383)" class="st0" width="3.6" height="3.6"/>
					
						<rect x="57.6" y="106.9" transform="matrix(8.529665e-02 -0.9964 0.9964 8.529665e-02 -53.9682 158.6101)" class="st0" width="3.6" height="3.6"/>
				</g>
			</g>
			
				<linearGradient id="SVGID_7_" gradientUnits="userSpaceOnUse" x1="-14.5837" y1="174.5648" x2="-14.5837" y2="191.3861" gradientTransform="matrix(0.9964 8.520000e-02 -8.520000e-02 0.9964 103.2074 -96.7908)">
				<stop  offset="0.1486" style="stop-color:#21687E"/>
				<stop  offset="0.491" style="stop-color:#023F5F"/>
				<stop  offset="0.9801" style="stop-color:#000000"/>
			</linearGradient>
			<path class="st18" d="M85.7,81.5l-1.6-0.1l-8.3-0.7l-1.6-0.1c-0.4,0-1.4-0.1-1.7-0.1L71,80.3l-8.3-0.7l-1.6-0.1
				c-1.6-0.1-1.9,0.6-2.1,1.2l-0.3,3.6L58.5,87l0,0.1l0,0c0.1,0.6,0.4,1.3,1.8,1.5l1.6,0.1l8.3,0.7l1.6,0.1c0.4,0,1.4,0.1,1.7,0.1
				l1.6,0.1l8.3,0.7l1.6,0.1c1.5,0.1,1.8-0.5,2.1-1.1l0,0l0-0.1l0.2-2.8l0.3-3.6C87.4,82.4,87.3,81.7,85.7,81.5z"/>
			<path class="st19" d="M72.1,85c3.6,0.2,7.2,0.3,10.7-0.4c1.2-0.2,2.6-0.5,3.8-0.9l0-0.5c-0.1-0.6-0.3-1.3-1.8-1.5l-23-2
				c-1.5-0.1-1.8,0.6-2,1.1l-0.1,0.6C63,84.4,68.1,84.7,72.1,85z"/>
		</g>
		<g>
			<path class="st20" d="M56.2,198.7c-0.1-3.7-1.8-7.8-4.9-9.9c-4.7-3.2-11.4-0.4-15.2,3c-2.3,2-3.9,4.3-5.1,7.1
				c-0.5,1.3-1,2.6-1.4,3.9c-0.4,0.9-0.8,1.9-1.3,2.8c-1,2.5-1.7,5-2.5,7.6c-1.2,4.1-2.1,8.6-1.4,12.9c1.4,7.9,11.1,10.3,17.5,7
				c3.3-1.7,5.7-4.8,7.4-8c1-2,1.7-4.1,2.4-6.2c0.8-2.6,1.8-5.1,2.5-7.7C55.4,207.3,56.4,202.9,56.2,198.7z"/>
			<path class="st0" d="M47.2,205.3c3.9-2.1,7-5.5,8.2-9.8c0.1-0.2,0.1-0.4,0.2-0.6c-0.8-2.5-2.2-4.8-4.3-6.2
				c-4.7-3.2-11.4-0.4-15.2,3c-2.3,2-3.9,4.3-5.1,7.1c-0.3,0.6-0.5,1.3-0.7,1.9C33.8,206.6,40.8,208.8,47.2,205.3z"/>
			<path class="st0" d="M37.1,213.1c-3.6-0.6-7.6-0.8-11.1,0.3c-1.1,4.1-2.1,8.5-1.4,12.8c1.4,7.9,11.1,10.3,17.5,7
				c3.3-1.7,5.7-4.8,7.4-8c0.7-1.5,1.3-3,1.9-4.5C47.3,216.8,42.8,214,37.1,213.1z"/>
			<path class="st2" d="M56.2,198.7c-0.1-3.7-1.8-7.8-4.9-9.9c-0.7-0.5-1.5-0.8-2.3-1.1c2.5,1.5,4.3,4.2,5.1,7.5
				c1.6,6.4-1,13.5-3.4,19.4c-2.8,6.7-7.1,13-14.5,14.9c-3.1,0.8-7.3,1-9.7-1.6c-1.2-1.3-1.8-2.9-2.2-4.5c0,0.9,0.1,1.9,0.3,2.8
				c1.4,7.9,11.1,10.3,17.5,7c3.3-1.7,5.7-4.8,7.4-8c1-2,1.7-4.1,2.4-6.2c0.8-2.6,1.8-5.1,2.5-7.7C55.4,207.3,56.4,202.9,56.2,198.7
				z"/>
			<path class="st2" d="M44.3,203.9c2.9-0.9,5.8-2.6,7.3-5.4c0.6-1.1,1-2.2,1.2-3.4c0-0.2,0-0.4-0.1-0.6
				c-3.4-23.3-5.8-23.8-1.5-31.6c4.3-7.7,11.6-19.2,9.8-22.2c-5.6-9.6-21.5-16.4-21.5-16.4s-6.2-1.6-7.9,0.3
				c-1.7,2-14.9,26.1-13.4,40c1.3,11.2,9.6,29.3,12.9,36C34.1,204.4,39.5,205.4,44.3,203.9z"/>
			<path class="st0" d="M28.9,167.7c4.8,0,9.7-3.3,8.9-8.6c-1-7-10.6-11.9-17.4-9.8c-1.6,5.5-2.6,10.9-2.1,15.4c0,0,0,0.1,0,0.1
				C21.6,166.5,25.3,167.7,28.9,167.7z"/>
			<path class="st2" d="M25.7,164.6c3.3,0,6.7-2.3,6.2-6c-0.7-4.9-7.4-8.3-12-6.8c-1.1,3.8-1.8,7.6-1.5,10.6c0,0,0,0,0,0.1
				C20.6,163.8,23.2,164.6,25.7,164.6z"/>
			<path class="st0" d="M37.9,145.8c6.1,2.3,12.8,6,16.4,11.7c3.9-6.9,8.1-14.4,6.7-16.8c-5.6-9.6-21.5-16.4-21.5-16.4
				s-6.2-1.6-7.9,0.3c-1,1.1-5.9,9.8-9.5,19.6C27.2,142.8,33.2,144.1,37.9,145.8z"/>
			<path class="st0" d="M33.9,180.8c3.8-0.1,7.5-1.1,10.7-3.1c1.4-0.9,3.3-2.1,4.7-3.7c-0.5-3.1-0.5-5.1,0.2-7.2
				c-5.3,2.4-11.7,2.9-17.3,2.6c-4.2-0.2-10.2-0.9-13.8-3.9c0.4,2.9,1.2,6.1,2.3,9.5C23.9,178.9,28.6,180.9,33.9,180.8z"/>
			<path class="st11" d="M34.8,171.9c5.1-0.2,10.5-1.7,14.6-4.8c0-0.1,0.1-0.2,0.1-0.3c-5.3,2.4-11.7,2.9-17.3,2.6
				c-4.2-0.2-10.2-0.9-13.8-3.9c0.2,1.1,0.4,2.2,0.6,3.4C23.4,171.8,30,172.2,34.8,171.9z"/>
			<path class="st7" d="M51.3,162.9c4.3-7.7,11.6-19.2,9.8-22.2c-5.6-9.6-21.5-16.4-21.5-16.4s-2.5-0.7-4.7-0.6
				c0.8,0.1,1.6,0.4,2.4,0.7c2.9,1.3,5.4,3.2,7.6,5.4c1.8,1.8,4.1,4.1,4.6,6.8c0.9,4.5-2.6,9.3-4.7,13c-2.8,5.1-5.7,10.8-6.4,16.7
				c-0.7,5.7,1,11.5,2.8,16.8c0.9,2.6,1.9,5.2,2.9,7.9c0.8,2.1,1.8,4.2,2.2,6.4c0.6,3.6-1.1,5.7-3.6,6.9c0.6-0.1,1.1-0.3,1.7-0.4
				c2.9-0.9,5.8-2.6,7.3-5.4c0.6-1.1,1-2.2,1.2-3.4c0-0.2,0-0.4-0.1-0.6C49.4,171.1,47,170.6,51.3,162.9z"/>
			<path class="st21" d="M33.7,125.9c0,0-15.4,26.3-14.2,37.7c1.2,11.4,12.9,35.9,12.9,35.9s-11.1-27.8-10.9-38.3
				c0.1-10.5,18.2-31.9,18.2-31.9L33.7,125.9z"/>
			<path class="st11" d="M45.1,211.4c-0.1,0-0.2,0-0.4-0.1c-9.5-4.1-14.9-1.7-14.9-1.7c-0.6,0.3-1.3,0-1.5-0.6
				c-0.3-0.6,0-1.3,0.6-1.5c0.3-0.1,6.4-2.8,16.8,1.6c0.6,0.3,0.9,0.9,0.6,1.5C46.1,211.2,45.6,211.5,45.1,211.4z"/>
			<path class="st11" d="M44.1,216.6c-0.1,0-0.3,0-0.4-0.1c-9.8-4.7-15.6-2.3-15.7-2.3c-0.6,0.3-1.3,0-1.5-0.6
				c-0.3-0.6,0-1.3,0.6-1.5c0.3-0.1,6.9-2.8,17.6,2.3c0.6,0.3,0.8,1,0.5,1.6C45,216.3,44.5,216.6,44.1,216.6z"/>
		</g>
		<g>
			<path class="st20" d="M62.3,212c0.3,2.7,0.8,5.3,1.1,8c0.3,2.2,0.7,4.4,1.3,6.5c1.1,3.5,2.9,6.9,5.9,9.2c5.7,4.3,15.7,3.5,18.4-4
				c1.5-4.1,1.3-8.6,0.8-12.9c-0.3-2.6-0.5-5.3-1.1-7.9c-0.2-1-0.5-2-0.8-3c-0.2-1.4-0.4-2.8-0.7-4.1c-0.7-3-1.9-5.5-3.8-7.9
				c-3.1-4-9.3-7.9-14.5-5.5c-3.5,1.6-5.8,5.3-6.5,9C61.7,203.4,61.9,207.8,62.3,212z"/>
			<path class="st0" d="M70.3,207.3c-3.5-2.8-6-6.6-6.5-11.1c0-0.2,0-0.4-0.1-0.6c1.2-2.3,3-4.3,5.3-5.4c5.2-2.3,11.3,1.6,14.5,5.5
				c1.9,2.4,3.1,4.9,3.8,7.9c0.2,0.7,0.3,1.3,0.4,2C83.3,210.8,75.9,211.8,70.3,207.3z"/>
			<path class="st0" d="M79,216.6c3.6,0.1,7.7,0.5,10.9,2.2c0.4,4.3,0.6,8.8-0.8,12.9c-2.7,7.5-12.7,8.3-18.4,4
				c-3-2.2-4.8-5.7-5.9-9.2c-0.5-1.6-0.8-3.2-1.1-4.8C68.2,218.6,73.2,216.6,79,216.6z"/>
			<path class="st2" d="M62.5,199.2c0.7-3.6,3.1-7.4,6.5-9c0.8-0.4,1.6-0.6,2.5-0.7c-2.7,1.1-5,3.4-6.3,6.5c-2.6,6-1.4,13.5,0,19.7
				c1.6,7.1,4.8,14,11.8,17.1c2.9,1.3,7,2.2,9.9,0.1c1.4-1,2.3-2.5,2.9-4.1c-0.2,0.9-0.4,1.8-0.7,2.7c-2.7,7.5-12.7,8.3-18.4,4
				c-3-2.2-4.8-5.7-5.9-9.2c-0.7-2.1-1-4.3-1.3-6.5c-0.4-2.7-0.9-5.3-1.1-8C61.9,207.8,61.7,203.4,62.5,199.2z"/>
			<path class="st2" d="M73.4,206.4c-2.7-1.4-5.3-3.6-6.3-6.6c-0.4-1.2-0.6-2.4-0.6-3.6c0-0.2,0.1-0.4,0.2-0.6
				c7.3-22.4,9.8-22.5,6.8-30.8c-2.9-8.3-8.1-20.9-5.9-23.5c7.2-8.5,24-12.5,24-12.5s6.4-0.6,7.7,1.7c1.4,2.2,10.3,28.3,6.4,41.7
				c-3.2,10.8-14.4,27.2-18.8,33.3C83.3,208.7,77.9,208.7,73.4,206.4z"/>
			<path class="st0" d="M94.7,173.4c-4.7-0.8-9-4.9-7.3-10c2.2-6.7,12.5-9.9,18.8-6.7c0.7,5.7,0.8,11.2-0.5,15.5c0,0,0,0.1,0,0.1
				C102.1,173.4,98.2,174,94.7,173.4z"/>
			<path class="st2" d="M98.4,170.8c-3.3-0.5-6.2-3.4-5.1-7c1.5-4.7,8.7-6.9,13-4.6c0.5,3.9,0.5,7.8-0.3,10.7c0,0,0,0,0,0.1
				C103.5,170.8,100.8,171.2,98.4,170.8z"/>
			<path class="st0" d="M89.6,150.3c-6.4,1.2-13.6,3.8-18.2,8.7c-2.7-7.4-5.5-15.6-3.8-17.7c7.2-8.5,24-12.5,24-12.5
				s6.4-0.6,7.7,1.7c0.8,1.3,4.2,10.7,6.1,21C100.6,149.1,94.5,149.3,89.6,150.3z"/>
			<path class="st0" d="M87.5,185.4c-3.7-0.7-7.2-2.4-10-4.9c-1.2-1.1-2.9-2.7-4-4.4c1-3,1.4-4.9,1.1-7.1c4.8,3.3,11.1,4.8,16.6,5.5
				c4.1,0.5,10.2,0.8,14.2-1.5c-0.9,2.7-2.2,5.8-3.8,9C97.7,185.3,92.8,186.4,87.5,185.4z"/>
			<path class="st11" d="M88.1,176.5c-4.9-1.1-10-3.4-13.5-7.2c0-0.1,0-0.2,0-0.3c4.8,3.3,11.1,4.8,16.6,5.5
				c4.1,0.5,10.2,0.8,14.2-1.5c-0.3,1-0.7,2.1-1.2,3.3C99.4,178.3,92.9,177.5,88.1,176.5z"/>
			<path class="st7" d="M73.5,164.8c-2.9-8.3-8.1-20.9-5.9-23.5c7.2-8.5,24-12.5,24-12.5s2.6-0.2,4.8,0.2c-0.8,0-1.6,0.1-2.5,0.3
				c-3,0.8-5.9,2.2-8.4,4c-2.1,1.5-4.8,3.4-5.7,5.9c-1.6,4.3,1,9.6,2.5,13.6c1.9,5.5,3.8,11.7,3.5,17.5c-0.3,5.7-2.9,11.1-5.6,16.1
				c-1.3,2.4-2.8,4.8-4.2,7.3c-1.1,1.9-2.5,3.9-3.3,6c-1.2,3.4,0.1,5.8,2.4,7.4c-0.5-0.2-1.1-0.4-1.6-0.7c-2.7-1.4-5.3-3.6-6.3-6.6
				c-0.4-1.2-0.6-2.4-0.6-3.6c0-0.2,0.1-0.4,0.2-0.6C73.9,173.2,76.4,173.1,73.5,164.8z"/>
			<path class="st21" d="M97.1,131.3c0,0,10.7,28.5,7.6,39.5c-3.1,11-18.8,33.2-18.8,33.2s15.6-25.5,17.3-35.9
				c1.7-10.4-12.5-34.5-12.5-34.5L97.1,131.3z"/>
			<path class="st11" d="M71.3,213.7c0.1,0,0.2,0,0.4,0c10.1-2.4,15,0.9,15,0.9c0.5,0.4,1.3,0.2,1.6-0.3c0.4-0.5,0.2-1.3-0.3-1.6
				c-0.2-0.2-5.8-3.9-16.9-1.2c-0.6,0.1-1,0.8-0.9,1.4C70.4,213.3,70.8,213.6,71.3,213.7z"/>
			<path class="st11" d="M71.5,218.9c0.1,0,0.3,0,0.4,0c10.4-3,15.8,0.4,15.8,0.4c0.5,0.4,1.3,0.2,1.6-0.3c0.4-0.5,0.2-1.3-0.3-1.6
				c-0.3-0.2-6.3-4-17.7-0.7c-0.6,0.2-1,0.8-0.8,1.4C70.6,218.5,71,218.9,71.5,218.9z"/>
		</g>
		<path class="st0" d="M39.2,116.6c0,0-0.3-30,2.6-40.8c0,0,1.3-5.6,4.7-6.4c3.4-0.8,19.5,2.8,19.5,2.8l-16.7-0.8
			c0,0-4.4-0.1-5.8,6.5C41.9,85.2,42.6,84.7,39.2,116.6z"/>
		<path class="st0" d="M92.2,121.1c0,0,5.4-29.5,4.3-40.6c0,0-0.3-5.8-3.5-7.1c-3.2-1.3-19.7-0.5-19.7-0.5l16.6,2
			c0,0,4.3,0.7,4.6,7.4C94.8,89.7,94.2,89.1,92.2,121.1z"/>
	</g>
</g>
</svg>
