<?xml version="1.0" encoding="utf-8"?>
<!-- Generator: Adobe Illustrator 24.1.2, SVG Export Plug-In . SVG Version: 6.00 Build 0)  -->
<svg version="1.1" xmlns="http://www.w3.org/2000/svg" xmlns:xlink="http://www.w3.org/1999/xlink" x="0px" y="0px"
	 viewBox="0 0 465 141" style="enable-background:new 0 0 465 141;" xml:space="preserve">
<style type="text/css">
	.Ombre_x0020_portée{fill:none;}
	.Néon_x0020_bleu_x0020_épais{fill:none;stroke:#0073BC;stroke-width:10;stroke-linecap:round;stroke-linejoin:round;}
	.Turquoise_x0020_lumineux{fill:url(#SVGID_1_);stroke:#FFFFFF;stroke-width:0.25;stroke-miterlimit:1;}
	.Ton_x0020_clair_x0020_noir{fill:url(#SVGID_2_);stroke:#FFFFFF;stroke-width:0.3629;stroke-miterlimit:1;}
	.Croquemitaine_GS{fill-rule:evenodd;clip-rule:evenodd;fill:#FFDD00;}
	.st0{fill:none;stroke:#FFFFFF;stroke-width:6;stroke-miterlimit:10;}
	.st1{fill:#FFFFFF;}
	.st2{fill:#CCCCCC;}
</style>
<linearGradient id="SVGID_1_" gradientUnits="userSpaceOnUse" x1="-14" y1="-71" x2="-14" y2="-72">
	<stop  offset="0" style="stop-color:#1D59F4"/>
	<stop  offset="0.618" style="stop-color:#2D65EE"/>
	<stop  offset="0.6292" style="stop-color:#3864F3"/>
	<stop  offset="0.9831" style="stop-color:#00DDFC"/>
</linearGradient>
<linearGradient id="SVGID_2_" gradientUnits="userSpaceOnUse" x1="-14" y1="-71" x2="-14" y2="-72">
	<stop  offset="0" style="stop-color:#060606"/>
	<stop  offset="0.618" style="stop-color:#000000"/>
	<stop  offset="0.6292" style="stop-color:#000000"/>
	<stop  offset="0.9831" style="stop-color:#000000"/>
</linearGradient>
<g id="cadre">
	<rect x="2.9" y="3" class="st0" width="459" height="135"/>
</g>
<g id="text">
	<g>
		<path class="st1" d="M65.8,33.9H49.5v42.2H36V33.9H19.6V23.8h46.2V33.9z"/>
		<path class="st1" d="M113.6,56.4c0,6.5-1.9,11.6-5.7,15.3c-3.8,3.7-9.1,5.6-15.9,5.6c-6.8,0-12.2-1.9-15.9-5.6
			c-3.8-3.7-5.7-8.9-5.7-15.3c0-6.5,1.9-11.7,5.7-15.4c3.8-3.7,9.1-5.6,15.9-5.6c6.9,0,12.2,1.9,16,5.6
			C111.7,44.8,113.6,49.9,113.6,56.4z M98,66c0.8-1,1.4-2.2,1.8-3.6c0.4-1.4,0.6-3.4,0.6-5.9c0-2.3-0.2-4.3-0.6-5.8
			c-0.4-1.6-1-2.8-1.8-3.8c-0.8-1-1.7-1.6-2.7-2c-1.1-0.4-2.2-0.6-3.4-0.6c-1.2,0-2.3,0.2-3.3,0.5c-0.9,0.3-1.9,1-2.7,2
			c-0.8,0.9-1.4,2.2-1.8,3.8c-0.5,1.6-0.7,3.6-0.7,6c0,2.2,0.2,4,0.6,5.6c0.4,1.6,1,2.9,1.8,3.8c0.8,0.9,1.6,1.6,2.7,2
			c1,0.4,2.2,0.6,3.6,0.6c1.1,0,2.2-0.2,3.3-0.6C96.4,67.5,97.3,66.9,98,66z"/>
		<path class="st1" d="M161.2,48.1v28h-12.7V56.4c0-1.9,0-3.6-0.1-4.9c-0.1-1.3-0.4-2.4-0.8-3.3s-1.1-1.5-1.9-1.8
			c-0.9-0.4-2.1-0.6-3.6-0.6c-1.2,0-2.4,0.3-3.6,0.8c-1.2,0.5-2.2,1-3.2,1.6v28h-12.7V36.6h12.7V41c2.2-1.7,4.3-3,6.3-4
			c2-1,4.2-1.4,6.6-1.4c2.6,0,4.9,0.6,6.9,1.7c2,1.2,3.5,2.9,4.7,5.1c2.5-2.1,5-3.8,7.4-5c2.4-1.2,4.7-1.8,7-1.8
			c4.3,0,7.5,1.3,9.7,3.8c2.2,2.6,3.3,6.2,3.3,11v25.7h-12.7V56.4c0-1.9,0-3.6-0.1-4.9c-0.1-1.3-0.3-2.4-0.8-3.3
			c-0.4-0.8-1-1.5-1.9-1.8c-0.9-0.4-2.1-0.6-3.7-0.6c-1.1,0-2.1,0.2-3.1,0.5C163.9,46.7,162.7,47.3,161.2,48.1z"/>
		<path class="st1" d="M215.7,21.4l-10.2,20.7h-8.2l5.5-20.7H215.7z"/>
		<path class="st1" d="M257.1,63.6c0,4.1-1.8,7.4-5.5,9.9s-8.7,3.7-15,3.7c-3.5,0-6.7-0.3-9.6-1c-2.9-0.7-5.2-1.4-6.9-2.2V63.6h1.2
			c0.6,0.4,1.4,0.9,2.2,1.5c0.8,0.5,2,1.1,3.5,1.7c1.3,0.5,2.8,1,4.5,1.4s3.4,0.6,5.3,0.6c2.5,0,4.3-0.3,5.5-0.8
			c1.2-0.6,1.8-1.4,1.8-2.4c0-1-0.4-1.7-1.1-2.1c-0.7-0.4-2-0.8-4-1.2c-0.9-0.2-2.2-0.4-3.8-0.7c-1.6-0.2-3.1-0.5-4.4-0.9
			c-3.6-0.9-6.2-2.4-8-4.4c-1.7-2-2.6-4.4-2.6-7.4c0-3.8,1.8-7,5.4-9.5c3.6-2.5,8.5-3.8,14.7-3.8c3,0,5.8,0.3,8.5,0.9
			s4.8,1.2,6.3,1.9v10h-1.1c-1.9-1.3-4-2.3-6.4-3.1s-4.8-1.2-7.3-1.2c-2,0-3.8,0.3-5.2,0.8c-1.4,0.6-2.1,1.4-2.1,2.4
			c0,0.9,0.3,1.7,0.9,2.1s2.1,1,4.5,1.5c1.3,0.3,2.7,0.5,4.2,0.8s3,0.6,4.5,0.9c3.3,0.9,5.8,2.2,7.4,4.1S257.1,60.8,257.1,63.6z"/>
		<path class="st1" d="M306.7,55.8c0,3.3-0.5,6.2-1.5,8.9c-1,2.7-2.3,4.9-3.9,6.6c-1.7,1.8-3.6,3.2-5.7,4.1s-4.4,1.4-6.8,1.4
			c-2.2,0-4.2-0.2-5.7-0.7c-1.6-0.5-3.2-1.2-4.8-2v16.5h-12.7v-54h12.7v4.1c1.9-1.5,3.9-2.8,6-3.8c2-1,4.4-1.4,7-1.4
			c4.9,0,8.7,1.8,11.5,5.4C305.3,44.6,306.7,49.5,306.7,55.8z M293.6,56.1c0-3.8-0.7-6.6-2-8.4c-1.3-1.7-3.4-2.6-6.2-2.6
			c-1.2,0-2.4,0.2-3.7,0.5c-1.3,0.4-2.5,0.9-3.6,1.6v19.8c0.8,0.3,1.7,0.5,2.7,0.6c1,0.1,1.9,0.1,2.8,0.1c3.3,0,5.8-1,7.5-2.9
			C292.8,63,293.6,60,293.6,56.1z"/>
		<path class="st1" d="M339.7,71.9c-0.7,0.5-1.5,1.1-2.5,1.9c-1,0.7-2,1.3-2.8,1.7c-1.2,0.6-2.5,1-3.9,1.2c-1.3,0.3-2.8,0.4-4.4,0.4
			c-3.8,0-6.9-1.2-9.4-3.5s-3.8-5.3-3.8-8.9c0-2.9,0.6-5.2,1.9-7.1s3.1-3.3,5.5-4.3c2.3-1.1,5.3-1.8,8.7-2.3c3.5-0.4,7.1-0.8,10.8-1
			v-0.2c0-2.2-0.9-3.7-2.7-4.5c-1.8-0.8-4.4-1.2-7.9-1.2c-2.1,0-4.3,0.4-6.7,1.1s-4.1,1.3-5.1,1.7h-1.2v-9.5
			c1.3-0.4,3.5-0.8,6.5-1.2c3-0.5,6-0.7,9.1-0.7c7.2,0,12.4,1.1,15.6,3.3s4.8,5.7,4.8,10.4v26.9h-12.6V71.9z M339.7,65.8v-8.2
			c-1.7,0.1-3.6,0.3-5.6,0.6c-2,0.2-3.5,0.5-4.5,0.9c-1.3,0.4-2.2,1-2.9,1.7c-0.7,0.8-1,1.8-1,3c0,0.8,0.1,1.5,0.2,2s0.5,1,1.1,1.5
			c0.5,0.5,1.2,0.8,1.9,1c0.8,0.2,1.9,0.3,3.5,0.3c1.3,0,2.5-0.3,3.8-0.8S338.7,66.6,339.7,65.8z"/>
		<path class="st1" d="M384.5,77.2c-3.4,0-6.6-0.4-9.4-1.2s-5.3-2.1-7.4-3.8c-2.1-1.7-3.7-3.9-4.9-6.5S361,60,361,56.5
			c0-3.7,0.6-6.9,1.8-9.5s2.9-4.9,5.2-6.6c2.1-1.7,4.6-2.9,7.4-3.7s5.7-1.2,8.7-1.2c2.7,0,5.2,0.3,7.5,0.9c2.3,0.6,4.4,1.3,6.4,2.3
			v10.8h-1.8c-0.5-0.4-1.1-0.9-1.8-1.5s-1.5-1.1-2.5-1.7c-1-0.5-2-0.9-3.2-1.3c-1.1-0.3-2.5-0.5-4-0.5c-3.4,0-6,1.1-7.8,3.2
			c-1.8,2.1-2.7,5.1-2.7,8.7c0,3.8,0.9,6.7,2.8,8.6c1.9,2,4.5,3,7.9,3c1.6,0,3-0.2,4.3-0.5c1.3-0.4,2.3-0.8,3.2-1.3
			c0.8-0.5,1.5-1,2.1-1.5c0.6-0.5,1.2-1,1.7-1.5h1.8v10.8c-2,0.9-4.1,1.7-6.2,2.2S387.1,77.2,384.5,77.2z"/>
		<path class="st1" d="M445.2,58.7h-29c0.2,3.1,1.4,5.5,3.5,7.1c2.2,1.6,5.4,2.5,9.6,2.5c2.7,0,5.3-0.5,7.8-1.4c2.5-1,4.5-2,5.9-3.1
			h1.4v10.2c-2.9,1.1-5.6,2-8.1,2.5s-5.3,0.8-8.4,0.8c-7.9,0-14-1.8-18.2-5.3c-4.2-3.6-6.3-8.6-6.3-15.2c0-6.5,2-11.7,6-15.5
			c4-3.8,9.5-5.7,16.4-5.7c6.4,0,11.3,1.6,14.5,4.9c3.2,3.2,4.9,7.9,4.9,14V58.7z M432.6,51.3c-0.1-2.6-0.7-4.6-2-6s-3.2-2-5.8-2
			c-2.4,0-4.4,0.6-6,1.9s-2.4,3.3-2.6,6.1H432.6z"/>
	</g>
	<g>
		<path class="st2" d="M31.9,115.3H30v-1.2c-0.6,0.5-1.1,0.9-1.7,1.1s-1.3,0.4-2,0.4c-1.4,0-2.5-0.5-3.3-1.6
			c-0.8-1.1-1.2-2.5-1.2-4.4c0-1,0.1-1.8,0.4-2.6c0.3-0.8,0.7-1.4,1.1-1.9c0.5-0.5,1-0.9,1.6-1.2s1.3-0.4,1.9-0.4
			c0.6,0,1.1,0.1,1.6,0.2c0.5,0.1,1,0.3,1.5,0.6v-5h1.9V115.3z M30,112.4v-6.6c-0.5-0.2-1-0.4-1.4-0.5s-0.9-0.1-1.3-0.1
			c-1.1,0-1.9,0.4-2.5,1.1s-0.9,1.8-0.9,3.2c0,1.4,0.2,2.4,0.7,3.1c0.5,0.7,1.2,1.1,2.2,1.1c0.5,0,1.1-0.1,1.7-0.4
			C29,113.1,29.5,112.8,30,112.4z"/>
		<path class="st2" d="M45.3,109.7h-8.4c0,0.7,0.1,1.3,0.3,1.8c0.2,0.5,0.5,1,0.9,1.3c0.4,0.3,0.8,0.6,1.3,0.7s1,0.2,1.6,0.2
			c0.8,0,1.6-0.2,2.4-0.5c0.8-0.3,1.4-0.6,1.7-0.9h0.1v2.1c-0.6,0.3-1.3,0.5-2,0.7c-0.7,0.2-1.4,0.3-2.1,0.3c-1.9,0-3.4-0.5-4.5-1.5
			c-1.1-1-1.6-2.5-1.6-4.4c0-1.9,0.5-3.4,1.5-4.5c1-1.1,2.4-1.7,4-1.7c1.5,0,2.7,0.5,3.6,1.4c0.8,0.9,1.3,2.2,1.3,3.8V109.7z
			 M43.4,108.3c0-1-0.3-1.8-0.8-2.3c-0.5-0.6-1.3-0.8-2.3-0.8c-1,0-1.9,0.3-2.5,0.9s-1,1.4-1,2.3H43.4z"/>
		<path class="st2" d="M58.1,103.8l-4.6,11.5h-1.9l-4.6-11.5H49l3.5,9.1l3.5-9.1H58.1z"/>
		<path class="st2" d="M62.8,112.3l-2.9,6.7h-1.5l1.8-6.7H62.8z"/>
		<path class="st2" d="M83.1,114c0,1.9-0.4,3.4-1.3,4.3s-2.2,1.4-4.1,1.4c-0.6,0-1.2,0-1.8-0.1c-0.6-0.1-1.1-0.2-1.7-0.4v-2h0.1
			c0.3,0.1,0.8,0.3,1.5,0.5c0.7,0.2,1.4,0.3,2.1,0.3c0.7,0,1.2-0.1,1.6-0.2c0.4-0.2,0.8-0.4,1-0.7c0.2-0.3,0.4-0.6,0.5-1
			s0.2-0.8,0.2-1.3v-1c-0.6,0.5-1.1,0.8-1.7,1c-0.5,0.2-1.2,0.3-2,0.3c-1.4,0-2.5-0.5-3.3-1.5c-0.8-1-1.2-2.4-1.2-4.2
			c0-1,0.1-1.8,0.4-2.5c0.3-0.7,0.7-1.3,1.1-1.9c0.4-0.5,1-0.9,1.6-1.1s1.3-0.4,1.9-0.4c0.7,0,1.2,0.1,1.7,0.2
			c0.4,0.1,0.9,0.3,1.4,0.6l0.1-0.5h1.8V114z M81.2,112.1v-6.2c-0.5-0.2-1-0.4-1.4-0.5c-0.4-0.1-0.9-0.1-1.3-0.1
			c-1.1,0-1.9,0.4-2.5,1.1S75,108,75,109.4c0,1.3,0.2,2.3,0.7,2.9s1.2,1,2.2,1c0.6,0,1.1-0.1,1.7-0.3
			C80.2,112.8,80.7,112.5,81.2,112.1z"/>
		<path class="st2" d="M96.5,109.7H88c0,0.7,0.1,1.3,0.3,1.8c0.2,0.5,0.5,1,0.9,1.3c0.4,0.3,0.8,0.6,1.3,0.7s1,0.2,1.6,0.2
			c0.8,0,1.6-0.2,2.4-0.5c0.8-0.3,1.4-0.6,1.7-0.9h0.1v2.1c-0.6,0.3-1.3,0.5-2,0.7c-0.7,0.2-1.4,0.3-2.1,0.3c-1.9,0-3.4-0.5-4.5-1.5
			c-1.1-1-1.6-2.5-1.6-4.4c0-1.9,0.5-3.4,1.5-4.5c1-1.1,2.4-1.7,4-1.7c1.5,0,2.7,0.5,3.6,1.4c0.8,0.9,1.3,2.2,1.3,3.8V109.7z
			 M94.6,108.3c0-1-0.3-1.8-0.8-2.3c-0.5-0.6-1.3-0.8-2.3-0.8c-1,0-1.9,0.3-2.5,0.9s-1,1.4-1,2.3H94.6z"/>
		<path class="st2" d="M109,109.7h-8.4c0,0.7,0.1,1.3,0.3,1.8c0.2,0.5,0.5,1,0.9,1.3c0.4,0.3,0.8,0.6,1.3,0.7s1,0.2,1.6,0.2
			c0.8,0,1.6-0.2,2.4-0.5c0.8-0.3,1.4-0.6,1.7-0.9h0.1v2.1c-0.6,0.3-1.3,0.5-2,0.7c-0.7,0.2-1.4,0.3-2.1,0.3c-1.9,0-3.4-0.5-4.5-1.5
			c-1.1-1-1.6-2.5-1.6-4.4c0-1.9,0.5-3.4,1.5-4.5c1-1.1,2.4-1.7,4-1.7c1.5,0,2.7,0.5,3.6,1.4c0.8,0.9,1.3,2.2,1.3,3.8V109.7z
			 M107.1,108.3c0-1-0.3-1.8-0.8-2.3c-0.5-0.6-1.3-0.8-2.3-0.8c-1,0-1.9,0.3-2.5,0.9s-1,1.4-1,2.3H107.1z"/>
		<path class="st2" d="M122.3,115.3h-2.5l-4.6-5l-1.3,1.2v3.8H112v-16h1.9v10.2l5.6-5.7h2.4l-5.3,5.3L122.3,115.3z"/>
		<path class="st2" d="M143,105.9v1c0,0.7-0.1,1.4-0.3,2.2s-0.5,1.6-0.9,2.3l3.9,3.8h-2.5l-2.3-2.3c-0.8,1-1.6,1.6-2.4,2
			c-0.8,0.4-1.7,0.6-2.5,0.6c-1.4,0-2.6-0.4-3.5-1.2c-0.9-0.8-1.4-1.9-1.4-3.3c0-0.6,0.1-1.2,0.3-1.6s0.4-0.9,0.6-1.2
			c0.2-0.3,0.5-0.6,0.9-0.9s0.7-0.5,1.1-0.7c-0.8-0.5-1.3-1-1.6-1.5c-0.3-0.5-0.5-1.1-0.5-1.9c0-0.5,0.1-0.9,0.3-1.3
			c0.2-0.4,0.5-0.8,0.8-1.1c0.3-0.3,0.8-0.6,1.3-0.8c0.5-0.2,1.2-0.3,1.8-0.3c1.2,0,2.1,0.3,2.9,0.9s1.1,1.4,1.1,2.3
			c0,0.3,0,0.6-0.1,1c-0.1,0.4-0.2,0.7-0.4,1c-0.2,0.3-0.5,0.7-0.9,1s-0.9,0.6-1.6,0.8l3.8,3.7c0.1-0.3,0.2-0.6,0.2-0.9
			s0.1-0.7,0.1-1c0-0.4,0-0.8,0-1.3s0-0.9,0-1.2H143z M139.9,112l-4.9-4.8c-0.2,0.1-0.4,0.2-0.6,0.4c-0.2,0.2-0.4,0.4-0.6,0.7
			c-0.2,0.3-0.3,0.6-0.5,1s-0.2,0.8-0.2,1.3c0,1,0.3,1.8,0.9,2.4c0.6,0.6,1.4,0.9,2.5,0.9c0.6,0,1.3-0.2,1.9-0.5
			C139,113.1,139.5,112.7,139.9,112z M138,103.1c0-0.6-0.2-1.2-0.6-1.5c-0.4-0.4-0.9-0.6-1.5-0.6c-0.6,0-1.1,0.2-1.5,0.6
			c-0.4,0.4-0.6,0.9-0.6,1.5c0,0.5,0.1,1,0.4,1.4s0.9,0.9,1.7,1.4c0.7-0.2,1.2-0.6,1.5-1.1C137.8,104.4,138,103.8,138,103.1z"/>
		<path class="st2" d="M162.6,112c0,1-0.4,1.9-1.3,2.6c-0.9,0.7-2,1-3.5,1c-0.8,0-1.6-0.1-2.3-0.3c-0.7-0.2-1.3-0.4-1.8-0.7v-2.2
			h0.1c0.6,0.5,1.3,0.8,2,1.1c0.7,0.3,1.5,0.4,2.1,0.4c0.8,0,1.5-0.1,2-0.4s0.7-0.7,0.7-1.3c0-0.5-0.1-0.8-0.4-1s-0.8-0.4-1.5-0.6
			c-0.3-0.1-0.6-0.1-1.1-0.2c-0.4-0.1-0.8-0.2-1.2-0.3c-1-0.3-1.7-0.7-2.1-1.2c-0.4-0.5-0.6-1.1-0.6-1.9c0-0.5,0.1-0.9,0.3-1.3
			c0.2-0.4,0.5-0.8,0.9-1.1c0.4-0.3,0.9-0.6,1.5-0.8s1.3-0.3,2-0.3c0.7,0,1.4,0.1,2.1,0.3c0.7,0.2,1.3,0.4,1.7,0.6v2.1H162
			c-0.5-0.4-1.1-0.7-1.8-0.9s-1.4-0.4-2.1-0.4c-0.7,0-1.3,0.1-1.8,0.4c-0.5,0.3-0.7,0.7-0.7,1.2c0,0.5,0.1,0.8,0.4,1.1
			c0.3,0.2,0.8,0.4,1.4,0.6c0.4,0.1,0.8,0.2,1.2,0.2c0.4,0.1,0.8,0.2,1.1,0.2c0.9,0.2,1.6,0.6,2.1,1.1
			C162.3,110.5,162.6,111.1,162.6,112z"/>
		<path class="st2" d="M175.1,109.5c0,1.9-0.5,3.3-1.4,4.4c-1,1.1-2.2,1.6-3.8,1.6c-1.6,0-2.9-0.5-3.9-1.6c-1-1.1-1.4-2.6-1.4-4.4
			s0.5-3.3,1.4-4.4c1-1.1,2.2-1.6,3.9-1.6c1.6,0,2.9,0.5,3.8,1.6C174.6,106.2,175.1,107.7,175.1,109.5z M173.1,109.5
			c0-1.5-0.3-2.6-0.9-3.3s-1.4-1.1-2.4-1.1c-1,0-1.9,0.4-2.4,1.1s-0.9,1.8-0.9,3.3c0,1.4,0.3,2.5,0.9,3.3c0.6,0.7,1.4,1.1,2.4,1.1
			c1,0,1.8-0.4,2.4-1.1C172.8,112.1,173.1,111,173.1,109.5z"/>
		<path class="st2" d="M194.8,115.3h-1.9v-6.5c0-0.5,0-1-0.1-1.4s-0.1-0.8-0.3-1.1c-0.2-0.3-0.4-0.5-0.7-0.7s-0.7-0.2-1.3-0.2
			c-0.5,0-1.1,0.1-1.6,0.4c-0.5,0.3-1.1,0.6-1.6,1c0,0.2,0,0.3,0.1,0.5c0,0.2,0,0.4,0,0.6v7.3h-1.9v-6.5c0-0.5,0-1-0.1-1.4
			c0-0.5-0.1-0.8-0.3-1.1c-0.2-0.3-0.4-0.5-0.7-0.7c-0.3-0.1-0.7-0.2-1.3-0.2c-0.5,0-1.1,0.1-1.6,0.4c-0.5,0.3-1.1,0.6-1.6,1v8.6
			h-1.9v-11.5h1.9v1.3c0.6-0.5,1.2-0.9,1.8-1.2s1.2-0.4,1.9-0.4c0.8,0,1.4,0.2,2,0.5c0.5,0.3,0.9,0.8,1.2,1.4
			c0.8-0.7,1.5-1.1,2.1-1.4c0.6-0.3,1.3-0.4,2.1-0.4c1.3,0,2.2,0.4,2.8,1.1c0.6,0.8,0.9,1.8,0.9,3.2V115.3z"/>
		<path class="st2" d="M208.1,109.7h-8.4c0,0.7,0.1,1.3,0.3,1.8c0.2,0.5,0.5,1,0.9,1.3c0.4,0.3,0.8,0.6,1.3,0.7s1,0.2,1.6,0.2
			c0.8,0,1.6-0.2,2.4-0.5c0.8-0.3,1.4-0.6,1.7-0.9h0.1v2.1c-0.6,0.3-1.3,0.5-2,0.7c-0.7,0.2-1.4,0.3-2.1,0.3c-1.9,0-3.4-0.5-4.5-1.5
			c-1.1-1-1.6-2.5-1.6-4.4c0-1.9,0.5-3.4,1.5-4.5c1-1.1,2.4-1.7,4-1.7c1.5,0,2.7,0.5,3.6,1.4c0.8,0.9,1.3,2.2,1.3,3.8V109.7z
			 M206.2,108.3c0-1-0.3-1.8-0.8-2.3c-0.5-0.6-1.3-0.8-2.3-0.8c-1,0-1.9,0.3-2.5,0.9s-1,1.4-1,2.3H206.2z"/>
		<path class="st2" d="M216.9,115.2c-0.4,0.1-0.8,0.2-1.2,0.2c-0.4,0.1-0.8,0.1-1.1,0.1c-1.2,0-2.1-0.3-2.7-0.9s-0.9-1.6-0.9-3v-6.1
			h-1.3v-1.6h1.3v-3.3h1.9v3.3h4v1.6h-4v5.2c0,0.6,0,1.1,0,1.4c0,0.3,0.1,0.7,0.3,0.9c0.2,0.3,0.4,0.5,0.6,0.6
			c0.3,0.1,0.7,0.2,1.2,0.2c0.3,0,0.6,0,1-0.1c0.3-0.1,0.6-0.2,0.7-0.2h0.1V115.2z"/>
		<path class="st2" d="M221.3,101.9h-2.2v-2h2.2V101.9z M221.2,115.3h-1.9v-11.5h1.9V115.3z"/>
		<path class="st2" d="M241.7,115.3h-1.9v-6.5c0-0.5,0-1-0.1-1.4c0-0.5-0.1-0.8-0.3-1.1c-0.2-0.3-0.4-0.5-0.7-0.7
			c-0.3-0.2-0.7-0.2-1.3-0.2c-0.5,0-1.1,0.1-1.6,0.4c-0.5,0.3-1.1,0.6-1.6,1c0,0.2,0,0.3,0.1,0.5c0,0.2,0,0.4,0,0.6v7.3h-1.9v-6.5
			c0-0.5,0-1-0.1-1.4c0-0.5-0.1-0.8-0.3-1.1c-0.2-0.3-0.4-0.5-0.7-0.7c-0.3-0.1-0.7-0.2-1.3-0.2c-0.5,0-1.1,0.1-1.6,0.4
			c-0.5,0.3-1.1,0.6-1.6,1v8.6H225v-11.5h1.9v1.3c0.6-0.5,1.2-0.9,1.8-1.2c0.6-0.3,1.2-0.4,1.9-0.4c0.8,0,1.4,0.2,2,0.5
			c0.5,0.3,0.9,0.8,1.2,1.4c0.8-0.7,1.5-1.1,2.1-1.4c0.6-0.3,1.3-0.4,2.1-0.4c1.3,0,2.2,0.4,2.8,1.1c0.6,0.8,0.9,1.8,0.9,3.2V115.3z
			"/>
		<path class="st2" d="M255,109.7h-8.4c0,0.7,0.1,1.3,0.3,1.8c0.2,0.5,0.5,1,0.9,1.3c0.4,0.3,0.8,0.6,1.3,0.7c0.5,0.2,1,0.2,1.6,0.2
			c0.8,0,1.6-0.2,2.4-0.5c0.8-0.3,1.4-0.6,1.7-0.9h0.1v2.1c-0.6,0.3-1.3,0.5-2,0.7c-0.7,0.2-1.4,0.3-2.1,0.3c-1.9,0-3.4-0.5-4.5-1.5
			c-1.1-1-1.6-2.5-1.6-4.4c0-1.9,0.5-3.4,1.5-4.5c1-1.1,2.4-1.7,4-1.7c1.5,0,2.7,0.5,3.6,1.4c0.8,0.9,1.3,2.2,1.3,3.8V109.7z
			 M253.2,108.3c0-1-0.3-1.8-0.8-2.3c-0.5-0.6-1.3-0.8-2.3-0.8c-1,0-1.9,0.3-2.5,0.9c-0.6,0.6-1,1.4-1,2.3H253.2z"/>
		<path class="st2" d="M266.1,112c0,1-0.4,1.9-1.3,2.6c-0.9,0.7-2,1-3.5,1c-0.8,0-1.6-0.1-2.3-0.3c-0.7-0.2-1.3-0.4-1.8-0.7v-2.2
			h0.1c0.6,0.5,1.3,0.8,2,1.1c0.7,0.3,1.5,0.4,2.1,0.4c0.8,0,1.5-0.1,2-0.4s0.7-0.7,0.7-1.3c0-0.5-0.1-0.8-0.4-1s-0.8-0.4-1.5-0.6
			c-0.3-0.1-0.6-0.1-1.1-0.2c-0.4-0.1-0.8-0.2-1.2-0.3c-1-0.3-1.7-0.7-2.1-1.2c-0.4-0.5-0.6-1.1-0.6-1.9c0-0.5,0.1-0.9,0.3-1.3
			c0.2-0.4,0.5-0.8,0.9-1.1c0.4-0.3,0.9-0.6,1.5-0.8c0.6-0.2,1.3-0.3,2-0.3c0.7,0,1.4,0.1,2.1,0.3c0.7,0.2,1.3,0.4,1.7,0.6v2.1h-0.1
			c-0.5-0.4-1.1-0.7-1.8-0.9s-1.4-0.4-2.1-0.4c-0.7,0-1.3,0.1-1.8,0.4c-0.5,0.3-0.7,0.7-0.7,1.2c0,0.5,0.1,0.8,0.4,1.1
			c0.3,0.2,0.8,0.4,1.4,0.6c0.4,0.1,0.8,0.2,1.2,0.2c0.4,0.1,0.8,0.2,1.1,0.2c0.9,0.2,1.6,0.6,2.1,1.1
			C265.9,110.5,266.1,111.1,266.1,112z"/>
		<path class="st2" d="M285.2,115.3h-1.9V114c-0.2,0.1-0.4,0.3-0.7,0.5c-0.3,0.2-0.6,0.4-0.8,0.5c-0.3,0.2-0.7,0.3-1.1,0.4
			c-0.4,0.1-0.9,0.2-1.5,0.2c-1,0-1.9-0.3-2.6-1c-0.7-0.7-1.1-1.6-1.1-2.6c0-0.9,0.2-1.6,0.6-2.1c0.4-0.5,0.9-1,1.6-1.3
			c0.7-0.3,1.5-0.5,2.5-0.6c1-0.1,2-0.2,3.1-0.2v-0.3c0-0.4-0.1-0.8-0.2-1.1c-0.2-0.3-0.4-0.5-0.7-0.7c-0.3-0.2-0.6-0.3-1-0.3
			c-0.4-0.1-0.8-0.1-1.2-0.1c-0.5,0-1.1,0.1-1.7,0.2c-0.6,0.1-1.3,0.3-1.9,0.6h-0.1v-2c0.4-0.1,0.9-0.2,1.6-0.3s1.4-0.2,2.1-0.2
			c0.8,0,1.5,0.1,2.1,0.2c0.6,0.1,1.1,0.4,1.6,0.7c0.4,0.3,0.8,0.7,1,1.2s0.3,1.1,0.3,1.9V115.3z M283.3,112.4v-3.2
			c-0.6,0-1.3,0.1-2.1,0.2c-0.8,0.1-1.4,0.2-1.9,0.3c-0.6,0.2-1,0.4-1.3,0.7s-0.5,0.8-0.5,1.4c0,0.7,0.2,1.2,0.6,1.5
			c0.4,0.3,1,0.5,1.8,0.5c0.7,0,1.3-0.1,1.9-0.4C282.3,113.1,282.8,112.8,283.3,112.4z"/>
		<path class="st2" d="M297.1,112c0,1-0.4,1.9-1.3,2.6c-0.9,0.7-2,1-3.5,1c-0.8,0-1.6-0.1-2.3-0.3c-0.7-0.2-1.3-0.4-1.8-0.7v-2.2
			h0.1c0.6,0.5,1.3,0.8,2,1.1c0.7,0.3,1.5,0.4,2.1,0.4c0.8,0,1.5-0.1,2-0.4s0.7-0.7,0.7-1.3c0-0.5-0.1-0.8-0.4-1s-0.8-0.4-1.5-0.6
			c-0.3-0.1-0.6-0.1-1.1-0.2c-0.4-0.1-0.8-0.2-1.2-0.3c-1-0.3-1.7-0.7-2.1-1.2c-0.4-0.5-0.6-1.1-0.6-1.9c0-0.5,0.1-0.9,0.3-1.3
			c0.2-0.4,0.5-0.8,0.9-1.1c0.4-0.3,0.9-0.6,1.5-0.8c0.6-0.2,1.3-0.3,2-0.3c0.7,0,1.4,0.1,2.1,0.3c0.7,0.2,1.3,0.4,1.7,0.6v2.1h-0.1
			c-0.5-0.4-1.1-0.7-1.8-0.9s-1.4-0.4-2.1-0.4c-0.7,0-1.3,0.1-1.8,0.4c-0.5,0.3-0.7,0.7-0.7,1.2c0,0.5,0.1,0.8,0.4,1.1
			c0.3,0.2,0.8,0.4,1.4,0.6c0.4,0.1,0.8,0.2,1.2,0.2c0.4,0.1,0.8,0.2,1.1,0.2c0.9,0.2,1.6,0.6,2.1,1.1
			C296.8,110.5,297.1,111.1,297.1,112z"/>
		<path class="st2" d="M305.8,115.2c-0.4,0.1-0.8,0.2-1.2,0.2c-0.4,0.1-0.8,0.1-1.1,0.1c-1.2,0-2.1-0.3-2.7-0.9s-0.9-1.6-0.9-3v-6.1
			h-1.3v-1.6h1.3v-3.3h1.9v3.3h4v1.6h-4v5.2c0,0.6,0,1.1,0,1.4c0,0.3,0.1,0.7,0.3,0.9c0.2,0.3,0.4,0.5,0.6,0.6
			c0.3,0.1,0.7,0.2,1.2,0.2c0.3,0,0.6,0,1-0.1c0.3-0.1,0.6-0.2,0.7-0.2h0.1V115.2z"/>
		<path class="st2" d="M315.3,105.9h-0.1c-0.3-0.1-0.6-0.1-0.8-0.1c-0.3,0-0.6,0-1,0c-0.6,0-1.2,0.1-1.7,0.4c-0.6,0.3-1.1,0.6-1.6,1
			v8.1h-1.9v-11.5h1.9v1.7c0.8-0.6,1.4-1.1,2-1.3c0.6-0.3,1.2-0.4,1.8-0.4c0.3,0,0.6,0,0.7,0s0.4,0,0.7,0.1V105.9z"/>
		<path class="st2" d="M326.8,109.5c0,1.9-0.5,3.3-1.4,4.4c-1,1.1-2.2,1.6-3.8,1.6c-1.6,0-2.9-0.5-3.9-1.6c-1-1.1-1.4-2.6-1.4-4.4
			s0.5-3.3,1.4-4.4c1-1.1,2.2-1.6,3.9-1.6c1.6,0,2.9,0.5,3.8,1.6C326.4,106.2,326.8,107.7,326.8,109.5z M324.9,109.5
			c0-1.5-0.3-2.6-0.9-3.3s-1.4-1.1-2.4-1.1c-1,0-1.9,0.4-2.4,1.1c-0.6,0.7-0.9,1.8-0.9,3.3c0,1.4,0.3,2.5,0.9,3.3
			c0.6,0.7,1.4,1.1,2.4,1.1c1,0,1.8-0.4,2.4-1.1C324.6,112.1,324.9,111,324.9,109.5z"/>
		<path class="st2" d="M339.4,115.3h-1.9v-6.5c0-0.5,0-1-0.1-1.5c-0.1-0.5-0.2-0.8-0.3-1.1c-0.2-0.3-0.4-0.5-0.7-0.6
			s-0.7-0.2-1.3-0.2c-0.5,0-1.1,0.1-1.7,0.4s-1.1,0.6-1.7,1v8.6h-1.9v-11.5h1.9v1.3c0.6-0.5,1.2-0.9,1.9-1.2c0.6-0.3,1.3-0.4,2-0.4
			c1.2,0,2.2,0.4,2.8,1.1s1,1.8,1,3.2V115.3z"/>
		<path class="st2" d="M352,115.3h-1.9V114c-0.2,0.1-0.4,0.3-0.7,0.5c-0.3,0.2-0.6,0.4-0.8,0.5c-0.3,0.2-0.7,0.3-1.1,0.4
			c-0.4,0.1-0.9,0.2-1.5,0.2c-1,0-1.9-0.3-2.6-1c-0.7-0.7-1.1-1.6-1.1-2.6c0-0.9,0.2-1.6,0.6-2.1c0.4-0.5,0.9-1,1.6-1.3
			c0.7-0.3,1.5-0.5,2.5-0.6c1-0.1,2-0.2,3.1-0.2v-0.3c0-0.4-0.1-0.8-0.2-1.1c-0.2-0.3-0.4-0.5-0.7-0.7c-0.3-0.2-0.6-0.3-1-0.3
			c-0.4-0.1-0.8-0.1-1.2-0.1c-0.5,0-1.1,0.1-1.7,0.2c-0.6,0.1-1.3,0.3-1.9,0.6h-0.1v-2c0.4-0.1,0.9-0.2,1.6-0.3s1.4-0.2,2.1-0.2
			c0.8,0,1.5,0.1,2.1,0.2c0.6,0.1,1.1,0.4,1.6,0.7c0.4,0.3,0.8,0.7,1,1.2s0.3,1.1,0.3,1.9V115.3z M350.1,112.4v-3.2
			c-0.6,0-1.3,0.1-2.1,0.2c-0.8,0.1-1.4,0.2-1.9,0.3c-0.6,0.2-1,0.4-1.3,0.7s-0.5,0.8-0.5,1.4c0,0.7,0.2,1.2,0.6,1.5
			c0.4,0.3,1,0.5,1.8,0.5c0.7,0,1.3-0.1,1.9-0.4C349.1,113.1,349.6,112.8,350.1,112.4z"/>
		<path class="st2" d="M365.2,115.3h-1.9V114c-0.7,0.5-1.3,0.9-1.9,1.2c-0.6,0.3-1.3,0.4-2,0.4c-1.2,0-2.1-0.4-2.8-1.1
			c-0.7-0.7-1-1.8-1-3.2v-7.4h1.9v6.5c0,0.6,0,1.1,0.1,1.5c0.1,0.4,0.2,0.8,0.3,1.1c0.2,0.3,0.4,0.5,0.7,0.7s0.7,0.2,1.3,0.2
			c0.5,0,1-0.1,1.6-0.4c0.6-0.3,1.1-0.6,1.7-1v-8.6h1.9V115.3z"/>
		<path class="st2" d="M375,115.2c-0.4,0.1-0.8,0.2-1.2,0.2c-0.4,0.1-0.8,0.1-1.1,0.1c-1.2,0-2.1-0.3-2.7-0.9s-0.9-1.6-0.9-3v-6.1
			h-1.3v-1.6h1.3v-3.3h1.9v3.3h4v1.6h-4v5.2c0,0.6,0,1.1,0,1.4c0,0.3,0.1,0.7,0.3,0.9c0.2,0.3,0.4,0.5,0.6,0.6
			c0.3,0.1,0.7,0.2,1.2,0.2c0.3,0,0.6,0,1-0.1c0.3-0.1,0.6-0.2,0.7-0.2h0.1V115.2z"/>
	</g>
</g>
</svg>
