<svg version="1" xmlns="http://www.w3.org/2000/svg" width="150" height="150" viewBox="-25 -25 150 150"><path d="M9.378 107.168L.34 5.785h99.32l-9.05 101.363-40.673 11.277-40.559-11.257z" fill="#e44f26"/><path d="M50 109.809l32.865-9.113 7.732-86.619H50v95.732z" fill="#f1662a"/><path d="M50 51.678H33.547l-1.136-12.733H50V26.509H18.822l.298 3.337 3.053 34.262H50v-12.43zm0 32.289l-.055.016-13.849-3.738-.883-9.916H22.731l1.741 19.523 25.471 7.072.057-.018V83.967zM9.58-18.425h6.321v6.242h5.779v-6.242h6.318V.479h-6.32V-5.85H15.9V.479H9.579l.001-18.904zm26.729 6.27h-5.563v-6.27H48.19v6.268h-5.563V.479h-6.319v-12.634h.001zm14.651-6.27h6.588l4.058 6.643 4.049-6.643h6.589V.479H65.95v-9.37l-4.345 6.722h-.112l-4.349-6.722v9.37h-6.187l.003-18.904zm24.429 0h6.319V-5.77h8.886V.477H75.389v-18.902z" fill="#ebebeb"/><path d="M49.955 51.678v12.43h15.313l-1.444 16.127-13.867 3.742v12.938l25.491-7.063.187-2.102 2.922-32.734.305-3.338H49.955zm0-25.169v12.436h30.034l.248-2.796.569-6.303.296-3.337H49.955z" fill="#fff"/></svg>