<svg version="1" xmlns="http://www.w3.org/2000/svg" width="150" height="150" viewBox="0 0 150 150"><path fill="#265AA6" d="M112.936 130.188L75 140.404l-37.937-10.216L28.31 35.35h93.379z"/><path fill="#449DD7" d="M74.998 43.033v89.223l.086.023 30.701-8.265 7.086-80.981z"/><path d="M53.469 21.417v-5.645h8.236V9.594H47.293v17.459h14.412v-5.636zm23.051-5.645h5.758V9.594H67.864v6.178c1.927 1.929 2.935 2.852 5.722 5.641-1.63 0-5.722.006-5.722.005v5.636h14.414v-5.637l-5.758-5.645zm20.429 0h5.758V9.594H88.293v6.178c1.928 1.929 2.934 2.852 5.723 5.641-1.629 0-5.723.006-5.723.005v5.636h14.414v-5.637l-5.758-5.645zM74.965 66.747L47.814 78.055l.9 11.195 26.251-11.225 27.924-11.939 1.158-11.453z" fill="#FFF"/><linearGradient id="a" gradientUnits="userSpaceOnUse" x1="284.05" y1="-284.209" x2="284.05" y2="-261.707" gradientTransform="matrix(1 0 0 -1 -222.66 -194.96)"><stop offset=".387" stop-color="#dadada" stop-opacity="0"/><stop offset="1" stop-color="#dadada"/></linearGradient><path fill="url(#a)" d="M47.814 78.055l.9 11.195 26.251-11.225V66.747z"/><linearGradient id="b" gradientUnits="userSpaceOnUse" x1="312.166" y1="-272.985" x2="312.166" y2="-249.593" gradientTransform="matrix(1 0 0 -1 -222.66 -194.96)"><stop offset=".387" stop-color="#dadada" stop-opacity="0"/><stop offset="1" stop-color="#dadada"/></linearGradient><path fill="url(#b)" d="M104.047 54.633L74.965 66.747v11.278l27.924-11.939z"/><linearGradient id="c" gradientUnits="userSpaceOnUse" x1="270.516" y1="-294.246" x2="324.565" y2="-294.246" gradientTransform="matrix(1 0 0 -1 -222.66 -194.96)"><stop offset="0" stop-color="#eeeded"/><stop offset="1" stop-color="#fff"/></linearGradient><path fill="url(#c)" d="M47.855 78.055l.9 11.195 40.28.127-.9 14.928-13.255 3.733-12.741-3.22-.773-9.263H49.528l1.543 17.886 23.937 7.077 23.806-6.948 3.09-35.515z"/><path d="M74.965 78.055H47.814l.9 11.195 26.251.083zm0 29.945l-.128.038-12.741-3.22-.771-9.263H49.486l1.544 17.886 23.935 7.077z" opacity=".05"/><linearGradient id="d" gradientUnits="userSpaceOnUse" x1="268.028" y1="-255.319" x2="326.707" y2="-255.319" gradientTransform="matrix(1 0 0 -1 -222.66 -194.96)"><stop offset="0" stop-color="#eeeded"/><stop offset="1" stop-color="#fff"/></linearGradient><path fill="url(#d)" d="M45.368 54.633h58.679l-1.158 11.453H46.783z"/><path opacity=".05" d="M74.965 54.633H45.368l1.415 11.453h28.182z"/></svg>