<svg version="1.1" id="Calque_1" xmlns="http://www.w3.org/2000/svg" x="0" y="0" viewBox="0 0 53 53" style="enable-background:new 0 0 53 53" xml:space="preserve"><style>.st0{fill:none;stroke:#9d9d9c;stroke-width:7;stroke-miterlimit:10}.st4{fill:#fff}.st5{fill:#390075}.st7{fill:#ffad40}.st9{fill:#ff9343}.st10{fill:#fff3e9}.st11{fill:#f9d3b7}.st12{fill:#512717}.st16{opacity:.4}.st17{fill:none;stroke:#3c3c3b;stroke-miterlimit:10}</style><linearGradient id="SVGID_1_" gradientUnits="userSpaceOnUse" x1="-223" y1="-124" x2="-223" y2="-125"><stop offset="0" style="stop-color:#1d59f4"/><stop offset=".618" style="stop-color:#2d65ee"/><stop offset=".629" style="stop-color:#3864f3"/><stop offset=".983" style="stop-color:#00ddfc"/></linearGradient><linearGradient id="SVGID_2_" gradientUnits="userSpaceOnUse" x1="-223" y1="-124" x2="-223" y2="-125"><stop offset="0" style="stop-color:#060606"/><stop offset=".618" style="stop-color:#000"/><stop offset=".629" style="stop-color:#000"/><stop offset=".983" style="stop-color:#000"/></linearGradient><path d="M.8 28.3c0 10.1 8.7 19.5 15.4 21.5 4.9 2.4 17.2 1.6 21.8-.6 11.6-5.4 13.1-12.5 13.1-20.9C51.2 14.4 39.9 3.1 26 3.1S.8 14.4.8 28.3z" style="fill:#64dbff"/><g style="opacity:.2"><path d="M3.2 28.2c0 9.1 7.9 17.7 13.9 19.4 4.4 2.1 15.6 1.4 19.8-.5 9.9-4.6 11.7-10.6 11.9-17.6-1.8 2-4.3 3.9-7.9 5.6-4.2 1.9-15.3 2.6-19.8.5C15 33.8 7.2 25.3 7.2 16.1v-.8c-2.5 3.7-4 8.1-4 12.9z" style="fill:#000072"/></g><path class="st4" d="M35 43.8c-2.2-3.9-17.3-5.3-16.4.8"/><path class="st4" d="M35 43.8c-2.2-3.9-17.3-5.3-16.4.8"/><path class="st5" d="M18.2 44.7c-.3-1.9.8-3.3 3-4.1 2.1-.7 5.1-.8 8.1-.2 3.1.6 5.3 1.8 6.1 3.2m-.8.4c-1-1.8-5.4-3.1-9.3-3.1-1.4 0-2.8.2-3.8.5-1.8.6-2.6 1.7-2.4 3.1"/><path class="st7" d="M22.2 16.1C17.1 11.9 11.1 9.6 8.9 11c-1.8 1.1-1.7 8 2.4 19"/><path class="st7" d="m11.2 29.9 11-13.9-.1-.1c-5-4.1-11-6.4-13.2-5-.3.2-.5.5-.7.9-1 2.5-.4 8.9 3 18.1z"/><path class="st7" d="M11.1 29.5c.1.1.1.3.2.4l3.4-4.3 7.6-9.6-.1-.1c-5-4.1-11-6.4-13.2-5-.3.2-.5.5-.7.9-1.1 2.5-.5 8.7 2.8 17.7z"/><path class="st4" d="M8.2 11.9c2.3-1.6 8.3.3 13.2 5l.7-.9c-5-4.1-11-6.4-13.2-5-.3.1-.6.4-.7.9z" style="opacity:.5"/><path class="st9" d="m11.1 29.5 3.6-3.9c.2-1.9.2-4.7-.8-7.2-1.6-3.6-3.6-7.2-5.6-6.6-1.1 2.5-.5 8.7 2.8 17.7z"/><path class="st5" d="M11.2 30.4h.2c.2-.1.3-.3.3-.6-4.1-11.2-4-17.6-2.6-18.4 2.1-1.2 8 1.1 12.8 5.1.2.2.5.1.6-.1.2-.2.1-.5-.1-.6-5.3-4.4-11.4-6.6-13.9-5.1-1.1.7-1.5 2.9-1.2 6.2.2 2.5 1 6.9 3.4 13.3.2.1.3.2.5.2z"/><path class="st7" d="M40.6 22.7c.9-6.8-1.7-14.5-3.6-14.9-2.4-.5-7.5 4.4-9.8 8.9"/><path class="st7" d="m27.2 16.6 2.5 1.1 10.9 4.9c.7-5.4-.8-11.5-2.4-13.9-.4-.6-.8-1-1.2-1.1-2.4-.4-7.5 4.6-9.8 9z"/><path class="st9" d="m29.7 17.7 10.9 4.9c.7-5.4-.8-11.5-2.4-13.9-1.2.2-5.7 1.4-8.5 9z"/><path class="st5" d="M40.6 23.1c.2 0 .4-.2.4-.4.9-6.7-1.6-14.9-3.9-15.4-2.7-.6-7.8 4.5-10.3 9.1-.1.2 0 .5.2.6.2.1.5 0 .6-.2 2.5-4.5 7.4-9.1 9.4-8.6.6.1 1.7 1.8 2.5 4.8.9 3.2 1.1 6.7.7 9.7-.1.2.1.4.4.4z"/><path class="st10" d="M37 10.6c-.6-.4-2.4.6-4 2.9-1 1.4-1.8 3-1.8 3.9 1.5.5 4.9 2 8.3 3.6.2-4.6-1.4-9.8-2.5-10.4z"/><path class="st10" d="M31.2 17.3c1.5.5 4.9 2 8.3 3.6v-.2c0-1.2 0-2.4-.2-3.6-.4-3.2-1.5-6.1-2.3-6.6-.6-.4-2.4.6-4 2.9-1 1.5-1.8 3-1.8 3.9z"/><path class="st11" d="M31.3 17.3c1.5.5 4.9 2 8.3 3.6v-.7c0-1 0-2.1-.1-3.1h-.1c-.9 0-2.3-.3-3.2-1.8-1.1-1.9 0-3.7.9-4.8-.6-.4-2.4.6-4 2.9-1 1.5-1.7 3-1.8 3.9z"/><path class="st12" d="M34.5 19.1c-1.4-.6-2.7-1.1-3.5-1.4-.2-.1-.3-.2-.3-.4.1-1 .8-2.3 1.4-3.2 0-.1.1-.1.1-.1.6-.4 1.7-.6 2.3-.3.4.2.6.5.6.8.1.3 0 .6-.1.9.4 0 .8.1 1.1.4.2.2.5.6.4 1.3-.1.6-.6 1.3-1.6 2.1-.1.1-.2.1-.3.1 0-.1 0-.1-.1-.2zm-.1-2.8s-.1 0 0 0c-.2 0-.4 0-.5-.2-.2-.3 0-.5.1-.6.3-.4.4-.7.4-.9 0 0 0-.1-.2-.2s-.9 0-1.4.2c-.6 1-1 1.8-1.1 2.4.8.3 1.8.7 2.9 1.2.9-.8 1.1-1.2 1.1-1.4 0-.2 0-.4-.1-.5-.1-.1-.3-.2-.6-.2-.2.1-.4.1-.6.2z"/><path class="st5" d="M39.3 21.3c-3.5-1.7-6.9-3.1-8.3-3.6l-.3-.1v-.3c.1-1.3 1.2-3.1 1.9-4.1 1.6-2.3 3.5-3.6 4.5-3 1.3.8 2.9 6.3 2.7 10.8v.7l-.5-.4zm-2.5-10.4c-.3-.2-1.8.4-3.4 2.8-.9 1.3-1.6 2.6-1.7 3.3 1.4.5 4.3 1.7 7.4 3.2 0-4.4-1.6-8.9-2.3-9.3z"/><path class="st11" d="M31.2 17.3c.7.3 2 .8 3.5 1.4.7-.6 1.4-1.2 1.4-1.8.2-1.6-1.8-1.1-1.9-1.1-.1 0 1.1-1.3.1-1.8-.3-.2-1.3 0-1.8.3-.7 1.2-1.3 2.3-1.3 3z"/><path class="st5" d="M34.5 19.1c-1.4-.6-2.7-1.1-3.5-1.4l-.3-.1v-.3c.1-1 .8-2.3 1.3-3.2l.1-.1.1-.1c.6-.4 1.7-.6 2.3-.3.4.2.6.5.6.8.1.3 0 .7-.1.9.4 0 .8.1 1.1.4.2.2.5.6.4 1.3-.1.6-.6 1.3-1.6 2.1l-.2.2-.2-.2zm-.1-2.8s-.1 0 0 0h-.3l-.1-.2c-.2-.2 0-.5.1-.6.3-.4.4-.7.4-.9 0 0 0-.1-.2-.2s-.9 0-1.4.2c-.6 1-1 1.8-1.1 2.4.8.3 1.8.7 2.9 1.2.9-.8 1.1-1.2 1.1-1.4 0-.2 0-.4-.1-.5-.1-.1-.3-.2-.6-.2-.3.1-.5.1-.7.2z"/><path class="st7" d="M19.1 16.2c4.3-2 9.7-2.1 10.7-2.1s2 0 3 .2c9 1.2 12 9.3 14.2 16.7 0 0 2.5 2.9 2.1 6.8-.6 5.5-7.8 12.7-23 12.7-9.4 0-16-3.3-17.8-8.8-1.4-4.3-1.4-11.8 1.9-18.1"/><path class="st7" d="M7.6 38.5c.2 1.2.4 2.3.7 3.2 1.8 5.5 8.4 8.8 17.8 8.8 15.2 0 22.4-7.3 23-12.7.3-2.7-.8-4.9-1.5-6-.3-.5-.6-.8-.6-.8-2.1-7.4-5.2-15.5-14.2-16.7-.9-.1-1.9-.2-3-.2s-6.4.2-10.7 2.1l-8.9 7.3c-2.6 5-3.2 10.7-2.6 15z"/><path class="st10" d="M7.6 38.5c.2 1.2.4 2.3.7 3.2 1.8 5.5 8.4 8.8 17.8 8.8 15.2 0 22.4-7.3 23-12.7.3-2.7-.8-4.9-1.5-6-5 0-5.1 3.9-8.9 3.4-1.9-.2-2.5-1.9-5.4-1.7-3.9.3-5.3 3.4-8.6 3.8-3.7.5-3.9-2.2-10.3-1.3-2.9.5-5.4 1.6-6.8 2.5z"/><path class="st5" d="M25.1 50.5c-6-.6-13.3-2.2-16.1-8.3-.6-1.4-.9-3-1-4.6-.4-4.8.5-9.6 2.2-14.1-3.4 5.1-4.2 13.3-2.1 19 2.6 6.4 10.7 8.3 17 8zM19.1 16.2c3.9-1.4 9.5-2.1 13.7-1.5 8.5 1.1 11.7 9.1 13.8 16.3v-.1.2c0 .1.1.1.1.1 1.4 1.7 2.2 3.9 2 6.1-.4 4.5-4.7 8-8.4 9.9-1.8.9-3.7 1.6-5.7 2.2-.3.1-.6.2-.8.2 2.3-.3 4.6-.9 6.8-1.8 3.8-1.6 7.4-4.6 8.6-8.7.9-2.9.1-6.2-1.8-8.6-1.9-6.8-5.1-15.8-14.5-16.9-4.4-.3-9.9.5-13.8 2.6z"/><path class="st10" d="M9.6 12.5c1.7-.5 6.2 2.3 7.1 4 .7 1.4-2.1 1.7-5.8 5.9-1.8-2.9-2-9.7-1.3-9.9z"/><path class="st10" d="M10.9 22.4c.1 0 .1 0 0 0 3.7-4.2 6.5-4.5 5.8-5.9-.9-1.8-5.5-4.5-7.1-4-.1 0-.2.2-.2.4-.4 1.5-.1 6.9 1.5 9.5z"/><path class="st11" d="m10.7 21.7.3.6c3.7-4.1 6.5-4.5 5.8-5.8-.9-1.8-5.5-4.5-7.1-4-.1 0-.2.2-.2.4s-.1.3-.1.4c1.2.1 3.1.7 3.7 2.5.7 2.5-1.5 3.7-2.4 5.9z"/><path class="st12" d="M10.9 22.9c-.1 0-.3-.1-.3-.2C8.9 20 8.5 14.1 9 12.6c.1-.3.3-.4.5-.5 1.9-.6 6.6 2.3 7.6 4.3.5 1-.3 1.7-1.5 2.5-1.1.8-2.6 1.9-4.3 3.8-.1.1-.2.2-.4.2zm-1-10c-.4.8-.2 6 1.2 8.8 1.6-1.8 3.1-2.8 4.1-3.5 1.3-.9 1.4-1.1 1.3-1.4-.8-1.6-4.6-3.9-6.3-3.9h-.3zm-.1 0z"/><path class="st5" d="M10.9 22.9c-.1 0-.3-.1-.3-.2C8.9 20 8.5 14.1 9 12.6c.1-.3.3-.4.5-.5 1.5-.4 4.7 1.3 6.3 2.7.6.5 1.1 1.1 1.3 1.5.5 1-.3 1.7-1.6 2.5-.2.1-.4.3-.6.4-1 .7-2.3 1.8-3.8 3.4.1.2 0 .3-.2.3zm-1-10c-.4.8-.2 6 1.2 8.8 1.3-1.5 2.6-2.4 3.5-3.1.2-.2.4-.3.6-.4 1.3-.9 1.4-1.1 1.3-1.4-.2-.4-.6-.8-1.1-1.3-1.6-1.4-4-2.6-5.2-2.6h-.3z"/><path class="st5" d="M13.4 18.5c-.2-1 1-1.3 1.6-1.7-.1.1 0 .3.1.3-.5-.1-1-.1-1.4-.6-.4-.5-.2-1.2.2-1.6.6-.4 1.2-.4 1.8-.3.1 0 .2 0 .2.1.5.5 1.1 1 1.4 1.7.3.6-.2 1.2-.6 1.6-.5.4-1.1.8-1.6 1.2-.1.1-.3.1-.5 0h-.1c-.5 0-1-.2-1.1-.7zm.8-.2c.2.1.5.1.8.3h-.5c.5-.4 1.1-.7 1.5-1.1.1-.1.3-.3.3-.4.1-.1.1-.2 0-.3-.3-.5-.7-.9-1.1-1.3l.2.1h-.6c-.2 0-.4.1-.5.2-.1.1-.2.2-.2.3-.1.4.5.6.8.6 0 0 .2 0 .2.1.1 0 .2.2.1.3 0 .1-.1.1-.1.1-.3.2-.7.5-.9.8v.3z"/><path d="M35.8 37.9c-.7 1.2.1 4.5-1.7 5-2.3.7-3.3-3.2-3.5-4.4" style="fill:#232333"/><path class="st5" d="M30.7 38.5c.1.5.3 1.5.7 2.4.5 1.3 1.4 2.5 2.8 2.1.8-.2 1.1-1.1 1.2-2 .1-1.1.1-2.4.5-3L34 36.9l-3.3 1.6z"/><path d="M31.3 40.9c.5 1.3 1.4 2.5 2.8 2.1.8-.2 1.1-1.1 1.2-2-.4-.2-1-.2-1.7.3.1-.1-1.3-.9-2.3-.4z" style="fill:#ff67a0"/><path class="st5" d="M32.9 40.9c.4.2.8.4 1 1 0 0 .3-1.1-.3-1.5-.4-.3-.9.4-.7.5z"/><path class="st5" d="M33.6 43.3c.2 0 .4 0 .6-.1 1.3-.4 1.4-1.9 1.5-3.3.1-.8.1-1.5.3-1.9.1-.1 0-.3-.1-.4-.1-.1-.3 0-.4.1-.3.5-.3 1.3-.4 2.1-.1 1.2-.2 2.5-1.1 2.8-.4.1-.8.1-1.2-.2-1.2-.8-1.8-3.2-1.9-4.1 0-.1-.2-.3-.3-.2-.1 0-.3.2-.2.3.2 1.2.8 3.6 2.1 4.4.4.4.7.5 1.1.5z"/><path class="st10" d="M29.6 37.6c.5.9 1.2 1.5 2.3 1.5 1.2 0 1.8-1 2.1-1.7.3.6 1 .9 1.6.8 1.3-.3 1.4-2.1 1.4-2.1s-1.3-1.7-4-1.1c-2.7.4-3.4 2.6-3.4 2.6z"/><path class="st5" d="M29.4 37.6c.2.4.5.9.9 1.2.9.6 2.2.7 3-.1.4-.4.7-.8.9-1.3h-.6c.8 1.5 2.7 1.2 3.2-.3.1-.4.2-.8.2-1.2 0-.1-.1-.2-.2-.2s-.2.1-.2.1c-.1.4-.2.7-.3 1-.2.3-.4.6-.7.7-.5.3-1.3 0-1.5-.5l-.3-.6c-.2.6-.5 1.3-1 1.7-.6.6-1.6.6-2.3.2-.4-.2-.7-.6-.9-.9 0-.1-.3.1-.2.2z"/><path class="st5" d="M33.7 35.6c.3-.1.2.8.6 1.5.1.3-1.1.7-.9.2.5-1.1-.2-1.6.3-1.7z"/><path class="st11" d="M32.3 38.3c.6-.2 1.2-1.5.9-2.1-.2-.4-1-.6-.9-.3.4 2.5-2.1 1.8-2.1 1.8s1.2.8 2.1.6z"/><g><path class="st11" d="M35.6 37.4c-.8.3-1.3-.9-1.5-1.5-.1-.4.2-.6.3-.3 1 2.3 2.1.5 2.1.5s-.2.9-.9 1.3z"/></g><g><path class="st5" d="M35.5 34.2c.1.7-.6 1.4-1.1 1.8-.4.3-.9.4-1.3.2-.6-.3-1.5-.8-1.6-1.4-.2-1.1 3.8-1.7 4-.6z"/></g><g style="opacity:.35"><path class="st4" d="M34.5 34.1c0 .1-.2.3-.4.4-.1.1-.3.1-.5.1s-.5-.1-.5-.2c-.1-.3 1.3-.5 1.4-.3z"/></g><g><path class="st5" d="M16.1 50.2c-3.5-1-7.4-3.9-10.4-7.8C2.3 38 .4 33 .4 28.3.4 14.2 11.9 2.7 26 2.7s25.6 11.5 25.6 25.6c0 3.7-.3 8-2.3 11.8-2 3.9-5.7 7-11.1 9.5-2.3 1.1-6.5 1.8-11 2h-1.9c-3.9 0-7.2-.5-9.2-1.4zM1.3 28.3c0 4.5 1.8 9.3 5.1 13.5 2.9 3.8 6.7 6.6 10 7.5h.1c4.7 2.3 16.8 1.6 21.5-.6C49.8 43.3 50.8 36 50.8 28.3 50.8 14.6 39.7 3.5 26 3.5S1.3 14.6 1.3 28.3z"/></g><g class="st16"><path class="st4" d="M27.2 9.6c0 1.8 4.8 3.3 8.8 6 4.8 3.2 7.4 7.9 9 7.3 2.6-.9-.7-10.7-7-14.3-5.4-3-10.7-1.4-10.8 1z"/></g><g class="st16"><path class="st4" d="M16.6 10.3c1.5 1 2.6 1 5.9.6 4.4-.6 5.4-6.3-2.1-5-3.1.4-5.6 3.2-3.8 4.4z"/></g><g><path class="st5" d="M24.2 25.6c-1.8.2-3 2.5-2.7 5 .3 2.6 2 4.5 3.8 4.4 1.8-.2 3-2.5 2.7-5-.3-2.6-2-4.5-3.8-4.4z"/><path class="st4" d="M24.3 26.7c-.5.4-.6 1.3-.1 2 .4.8 1.2 1.1 1.7.8.5-.4.6-1.3.1-2-.4-.8-1.2-1.1-1.7-.8z"/></g><g><ellipse transform="rotate(-6.783 38.975 28.687)" class="st5" cx="39" cy="28.7" rx="3" ry="4.3"/><path class="st4" d="M38.6 25.4c-.5.3-.5 1.2-.1 1.9s1.1 1 1.6.7c.5-.3.5-1.2.1-1.9s-1.1-1-1.6-.7z"/></g><path class="st17" d="M11.9 43.4c2-1.6 4.8-3.4 8.3-4.8 3.8-1.4 7.2-1.9 10-1.9-4-.4-8.1-1-12.1-1.6-1.1-.2-2.3-.4-3.4-.5M55.4 42.1c-2-1.6-4.8-3.4-8.3-4.8-3.8-1.4-7.2-1.9-10-1.9 4-.4 8.1-1 12.1-1.6 1.1-.2 2.3-.4 3.4-.5"/></svg>