<?xml version="1.0" standalone="no"?>
<!DOCTYPE svg PUBLIC "-//W3C//DTD SVG 20010904//EN"
 "http://www.w3.org/TR/2001/REC-SVG-20010904/DTD/svg10.dtd">
<svg version="1.0" xmlns="http://www.w3.org/2000/svg"
 width="700.000000pt" height="700.000000pt" viewBox="0 0 700.000000 700.000000"
 preserveAspectRatio="xMidYMid meet">
<metadata>
Created by potrace 1.14, written by Peter Selinger 2001-2017
</metadata>
<g transform="translate(0.000000,700.000000) scale(0.100000,-0.100000)"
fill="#000000" stroke="none">
<path d="M3357 6644 c-1 -1 -58 -5 -127 -9 -69 -3 -138 -8 -155 -10 -50 -6
-129 -17 -146 -20 -9 -2 -34 -6 -55 -9 -47 -7 -147 -27 -201 -40 -10 -2 -38
-9 -63 -15 -25 -7 -54 -14 -65 -16 -47 -11 -297 -96 -380 -130 -220 -89 -493
-239 -669 -366 -48 -35 -98 -71 -110 -79 -11 -8 -64 -50 -116 -94 -421 -352
-773 -833 -965 -1316 -20 -52 -41 -104 -46 -115 -46 -111 -134 -437 -154 -570
-3 -23 -8 -52 -10 -65 -3 -14 -8 -45 -11 -70 -3 -25 -7 -55 -9 -67 -18 -114
-25 -487 -11 -618 15 -144 41 -290 76 -420 24 -92 90 -297 100 -310 4 -5 11
-21 15 -35 17 -59 113 -263 182 -390 160 -291 384 -589 628 -833 309 -309 640
-527 1000 -658 141 -52 335 -113 390 -122 17 -3 71 -13 120 -22 126 -22 132
-23 210 -30 39 -4 84 -9 100 -11 175 -23 758 -23 1005 1 25 2 72 6 105 9 135
11 477 63 590 89 11 3 52 12 90 21 145 34 296 91 480 181 188 93 235 118 377
204 339 204 658 494 835 759 32 48 60 89 63 92 8 8 32 50 91 167 l58 111 48
-25 c70 -37 281 -161 331 -195 l42 -29 0 80 0 79 -80 49 c-119 71 -130 77
-206 118 -38 20 -73 40 -77 45 -5 4 5 50 22 101 31 95 65 220 74 275 3 16 11
56 18 89 6 33 12 66 12 72 0 7 7 15 16 18 20 6 130 18 154 17 17 -1 18 5 13
61 -3 34 -5 65 -5 70 -1 4 -13 5 -28 3 -106 -17 -133 -18 -129 -4 24 72 39
673 22 853 -5 44 -9 94 -11 110 -3 34 -16 131 -21 160 -2 10 -6 37 -10 60 -3
22 -14 81 -26 130 -11 50 -21 98 -23 108 -13 60 -92 306 -131 405 -54 137
-149 336 -211 440 -24 41 -43 78 -43 83 0 5 -4 9 -10 9 -5 0 -10 5 -10 10 0
12 -77 128 -159 240 -180 245 -453 520 -701 703 -351 261 -733 445 -1165 562
-75 20 -245 56 -288 60 -21 2 -41 6 -45 9 -4 2 -41 7 -82 11 -41 4 -78 9 -81
11 -10 6 -426 23 -432 18z"/>
</g>
</svg>
