<svg version="1" xmlns="http://www.w3.org/2000/svg" width="150" height="150" viewBox="0 0 150 150"><radialGradient id="a" cx="19.05" cy="59.185" r="96.712" gradientTransform="translate(26.52 -9.307)" gradientUnits="userSpaceOnUse"><stop offset="0" stop-color="#fff"/><stop offset=".5" stop-color="#4d6997"/><stop offset="1" stop-color="#1d1d1b"/></radialGradient><ellipse cx="75" cy="75" rx="73.649" ry="38.742" fill="url(#a)"/><ellipse cx="74.999" cy="75" rx="70.773" ry="35.865" fill="#6682b9"/><path d="M89.073 86.592l3.513-18.066c.79-4.078.132-7.12-1.959-9.042-2.024-1.86-5.464-2.764-10.512-2.764h-6.08l1.74-8.952a1.153 1.153 0 0 0-1.13-1.37h-8.391a1.15 1.15 0 0 0-1.13.931L61.396 66.51c-.339-2.158-1.175-4.014-2.511-5.544-2.462-2.817-6.355-4.246-11.572-4.246H31.051c-.55 0-1.024.391-1.13.931l-7.545 38.824a1.148 1.148 0 0 0 1.129 1.371h8.458c.551 0 1.024-.391 1.13-.93l1.825-9.393h6.295c3.305 0 6.079-.357 8.247-1.064 2.215-.719 4.255-1.941 6.052-3.625a18.558 18.558 0 0 0 3.576-4.439l-1.508 7.76a1.153 1.153 0 0 0 1.13 1.369h8.392c.55 0 1.024-.391 1.129-.932l4.142-21.311h5.757c2.454 0 3.171.489 3.367.699.178.191.547.867.132 2.996L78.29 86.154a1.15 1.15 0 0 0 1.13 1.369h8.523a1.15 1.15 0 0 0 1.13-.931zM50.172 71.665c-.527 2.708-1.52 4.64-2.952 5.742-1.455 1.121-3.782 1.689-6.917 1.689h-3.749l2.71-13.948h4.847c3.56 0 4.995.761 5.57 1.399.8.885.969 2.655.491 5.118zm74.785-10.7c-2.46-2.817-6.354-4.246-11.572-4.246H97.122c-.552 0-1.024.391-1.13.931l-7.547 38.824c-.064.338.024.688.243.953.218.266.543.418.887.418h8.458c.552 0 1.024-.391 1.13-.93l1.824-9.393h6.296c3.304 0 6.079-.357 8.247-1.064 2.216-.719 4.255-1.941 6.052-3.625 1.499-1.377 2.733-2.924 3.669-4.596.933-1.67 1.603-3.535 1.993-5.541.962-4.946.193-8.893-2.287-11.731zm-8.771 10.7c-.527 2.708-1.52 4.64-2.951 5.742-1.455 1.121-3.783 1.689-6.918 1.689h-3.748l2.71-13.948h4.847c3.56 0 4.995.761 5.571 1.399.797.885.966 2.655.489 5.118z" fill="#fff"/><path d="M44.14 63.997c3.212 0 5.354.593 6.425 1.779 1.07 1.186 1.324 3.222.765 6.107-.584 3.005-1.711 5.149-3.38 6.435-1.668 1.285-4.208 1.928-7.619 1.928h-5.145l3.158-16.249h5.796zM23.533 96.695h8.458l2.006-10.322h7.245c3.197 0 5.826-.336 7.891-1.008 2.064-.67 3.94-1.797 5.629-3.377 1.418-1.303 2.564-2.74 3.443-4.313.877-1.569 1.5-3.302 1.869-5.198.895-4.603.219-8.187-2.024-10.755-2.243-2.568-5.813-3.852-10.705-3.852H31.079l-7.546 38.825zm42.75-49.148h8.391L72.668 57.87h7.476c4.702 0 7.947.821 9.732 2.461 1.786 1.641 2.32 4.299 1.607 7.975l-3.512 18.067h-8.523l3.338-17.179c.38-1.954.24-3.287-.418-3.998-.66-.71-2.064-1.066-4.211-1.066h-6.706l-4.322 22.243h-8.392l7.546-38.826zm43.87 16.45c3.213 0 5.354.593 6.425 1.779 1.07 1.186 1.325 3.222.766 6.107-.584 3.005-1.711 5.149-3.381 6.435-1.667 1.285-4.207 1.928-7.618 1.928h-5.144l3.158-16.249h5.794zM89.547 96.695h8.457l2.006-10.322h7.245c3.196 0 5.825-.336 7.89-1.008 2.065-.67 3.941-1.797 5.63-3.377 1.418-1.303 2.564-2.74 3.442-4.313.877-1.569 1.501-3.302 1.868-5.198.895-4.603.22-8.187-2.023-10.755-2.243-2.568-5.813-3.852-10.705-3.852H97.093l-7.546 38.825z" fill="#00000e"/></svg>